<?xml version="1.0" encoding="UTF-8"?>
<svg id="Layer_1" data-name="Layer 1" xmlns="http://www.w3.org/2000/svg" viewBox="0 0 403.52 53.27">
  <defs>
    <style>
      .cls-1 {
        fill: #694a26;
        stroke-width: 0px;
      }
    </style>
  </defs>
  <path class="cls-1" d="m17.85,2.57c-1.9-1.25-3.86-1.87-5.86-1.87-1.89,0-3.6.63-5.13,1.89-1.53,1.26-2.74,3.03-3.62,5.3-.88,2.28-1.32,4.86-1.32,7.74,0,1.17.17,2.24.51,3.23.34.98.8,1.76,1.39,2.32.59.56,1.24.84,1.95.84,1.07,0,1.94-.42,2.6-1.27.66-.84.99-1.97.99-3.36,0-.82-.09-1.52-.28-2.09-.19-.57-.41-1.04-.66-1.39-.26-.35-.6-.75-1.02-1.18-.49-.5-.85-.95-1.08-1.34-.23-.39-.35-.89-.35-1.51,0-.8.21-1.72.63-2.76.42-1.04,1.04-1.93,1.87-2.68.83-.74,1.84-1.11,3.03-1.11,2.04,0,3.55.98,4.54,2.95.98,1.97,1.48,4.72,1.48,8.24,0,2.88-.43,5.52-1.29,7.9-.86,2.38-2.4,4.76-4.63,7.14-2.24,2.43-4.03,4.64-5.35,6.63-1.32,1.99-2.32,4.07-2.98,6.25-.66,2.18-1,4.64-1,7.38v1.55h21.14v-15.76h-1.81c-.07,2.34-.27,4.14-.61,5.43-.34,1.28-.88,2.2-1.63,2.75-.75.55-1.79.82-3.14.82h-5.97c-.9,0-1.59-.25-2.08-.76-.49-.5-.73-1.19-.73-2.06,0-1.17.22-2.31.65-3.42.43-1.11,1.1-2.12,2-3.04,4.49-4.58,7.7-8.03,9.64-10.35,1.94-2.32,3.18-4.22,3.74-5.7.55-1.47.83-3.25.83-5.34,0-2.22-.6-4.35-1.8-6.4-1.2-2.05-2.75-3.7-4.65-4.94Z"/>
  <path class="cls-1" d="m47.77,35.33c-.19-.35-.28-.88-.28-1.56V1.56h-3.87l-15.5,34.61v2.3h12.36c.49,0,.83.19,1.02.55.19.37.28.94.28,1.72v4.57c0,1.03-.18,1.85-.55,2.45-.37.61-.88.91-1.54.91h-2.45v2.68h14.79v-2.68h-2.45c-.66,0-1.18-.3-1.54-.91-.37-.61-.55-1.42-.55-2.45v-4.84c0-.8.08-1.33.24-1.59.16-.26.45-.4.85-.4h3.44v-2.61h-3.24c-.49,0-.83-.18-1.02-.53Zm-5.99-1.56c0,.8-.11,1.35-.32,1.65-.21.3-.56.45-1.03.45h-5.69c-.73,0-1.28-.25-1.64-.76-.36-.5-.55-1.24-.55-2.2,0-.5.09-1.08.27-1.72.18-.64.47-1.42.88-2.33l5.12-11.81c.41-.96.75-1.62,1.03-1.99.28-.37.57-.55.88-.55.7,0,1.04.77,1.04,2.3v16.96Z"/>
  <path class="cls-1" d="m73.3,2.57c-1.9-1.25-3.86-1.87-5.86-1.87-1.89,0-3.6.63-5.13,1.89-1.53,1.26-2.74,3.03-3.62,5.3-.88,2.28-1.32,4.86-1.32,7.74,0,1.17.17,2.24.51,3.23.34.98.8,1.76,1.39,2.32.59.56,1.24.84,1.95.84,1.07,0,1.94-.42,2.6-1.27.66-.84,1-1.97,1-3.36,0-.82-.09-1.52-.28-2.09-.19-.57-.41-1.04-.66-1.39-.26-.35-.6-.75-1.02-1.18-.49-.5-.85-.95-1.08-1.34-.23-.39-.35-.89-.35-1.51,0-.8.21-1.72.63-2.76.42-1.04,1.04-1.93,1.87-2.68.83-.74,1.84-1.11,3.03-1.11,2.04,0,3.55.98,4.54,2.95.98,1.97,1.48,4.72,1.48,8.24,0,2.88-.43,5.52-1.29,7.9-.86,2.38-2.4,4.76-4.63,7.14-2.24,2.43-4.03,4.64-5.35,6.63-1.32,1.99-2.32,4.07-2.98,6.25-.66,2.18-1,4.64-1,7.38v1.55h21.14v-15.76h-1.81c-.07,2.34-.27,4.14-.61,5.43-.34,1.28-.88,2.2-1.63,2.75-.75.55-1.79.82-3.14.82h-5.97c-.9,0-1.59-.25-2.08-.76-.49-.5-.73-1.19-.73-2.06,0-1.17.22-2.31.65-3.42.43-1.11,1.1-2.12,2-3.04,4.49-4.58,7.7-8.03,9.64-10.35,1.94-2.32,3.18-4.22,3.74-5.7.55-1.47.83-3.25.83-5.34,0-2.22-.6-4.35-1.8-6.4-1.2-2.05-2.75-3.7-4.65-4.94Z"/>
  <path class="cls-1" d="m120.79,31.88c-.39,1.4-.79,2.38-1.18,2.94-.4.56-.88.84-1.44.84-.41,0-.75-.12-1.03-.34-.28-.23-.54-.63-.79-1.2-.25-.57-.52-1.41-.83-2.51l-8.21-29.49h-12.57v2.68h2.4c1.19,0,2.04.33,2.54,1,.5.67.75,1.79.75,3.37v35.16c0,1.58-.25,2.7-.75,3.36-.5.67-1.35,1-2.54,1h-2.4v2.68h13.66v-2.68h-2.4c-1.19,0-2.04-.33-2.54-1-.5-.66-.75-1.78-.75-3.36v-26.85c0-.87.09-1.49.28-1.85.19-.36.47-.55.87-.55.25,0,.48.15.68.45.2.3.4.84.62,1.61l9.56,34.23h2.78l9.92-34.23c.22-.78.43-1.31.64-1.61.2-.3.42-.45.66-.45.39,0,.68.18.87.55.19.37.28.98.28,1.85v26.85c0,1.58-.25,2.7-.75,3.36-.5.67-1.35,1-2.54,1h-2.4v2.68h17.33v-2.68h-2.4c-1.21,0-2.06-.33-2.55-1-.49-.66-.74-1.78-.74-3.36V9.15c0-1.58.25-2.7.74-3.37.49-.66,1.34-1,2.55-1h2.4v-2.68h-12.21l-8.52,29.77Z"/>
  <path class="cls-1" d="m167.45,4.79h2.4c1.21,0,2.06.33,2.55.99.49.67.74,1.79.74,3.36v27.23c0,2.68-.35,4.98-1.05,6.9-.7,1.92-1.7,3.39-3.02,4.39-1.32,1.01-2.9,1.51-4.75,1.51-2.7,0-4.71-.95-6.02-2.83-1.31-1.89-1.96-4.79-1.96-8.7V9.15c0-1.58.25-2.7.75-3.36.5-.66,1.35-.99,2.54-.99h2.4v-2.68h-17.34v2.68h2.4c1.21,0,2.06.33,2.55.99.49.67.74,1.79.74,3.36v27.43c0,5.17,1.14,9.07,3.42,11.69,2.28,2.62,5.65,3.93,10.12,3.93,2.74,0,4.97-.77,6.69-2.3,1.73-1.53,2.96-3.47,3.71-5.8.75-2.33,1.12-4.77,1.12-7.31V9.15c0-1.58.25-2.7.75-3.36.5-.66,1.35-.99,2.54-.99h2.42v-2.68h-13.69v2.68Z"/>
  <path class="cls-1" d="m211.39,41.18c-.89,2.68-2.07,4.6-3.53,5.75-1.46,1.16-3.34,1.73-5.63,1.73h-1.04c-1.28,0-2.29-.17-3.05-.52-.76-.34-1.31-.91-1.66-1.72-.35-.8-.52-1.91-.52-3.33V9.15c0-1.58.25-2.7.75-3.37.5-.66,1.35-1,2.54-1h2.42v-2.68h-17.34v2.68h2.4c1.19,0,2.04.33,2.54,1,.5.67.75,1.79.75,3.37v35.16c0,1.58-.25,2.7-.75,3.36-.5.67-1.35,1-2.54,1h-2.4v2.68h30.75v-21.22h-1.61c-.49,4.69-1.19,8.38-2.08,11.06Z"/>
  <path class="cls-1" d="m243.37,27.07c-.49-.27-.74-.57-.74-.89,0-.34.21-.65.64-.93,2.09-1.42,3.68-2.99,4.78-4.7,1.1-1.72,1.64-3.71,1.64-5.97,0-2.01-.56-3.98-1.7-5.91-1.13-1.92-2.68-3.5-4.64-4.72-1.96-1.22-4.13-1.84-6.51-1.84h-17.75v2.68h2.4c1.19,0,2.04.33,2.54,1,.5.67.75,1.79.75,3.37v35.16c0,1.58-.25,2.7-.75,3.36-.5.67-1.35,1-2.54,1h-2.4v2.68h18.94c2.21,0,4.3-.61,6.27-1.84,1.97-1.23,3.55-2.83,4.74-4.81,1.19-1.98,1.78-4.04,1.78-6.16,0-2.45-.68-4.66-2.04-6.64-1.36-1.98-3.17-3.59-5.43-4.82Zm-12.64-17.92c0-1.58.24-2.7.73-3.37.48-.66,1.32-1,2.51-1h2.93c1.82,0,3.23.75,4.23,2.25,1,1.5,1.5,3.61,1.5,6.34v3.16c0,2.75-.49,4.85-1.48,6.32-.99,1.47-2.4,2.2-4.26,2.2h-3.34c-.99,0-1.7-.3-2.16-.89-.45-.59-.67-1.53-.67-2.81v-12.19Zm12.75,31.14c0,2.68-.53,4.74-1.59,6.2-1.06,1.45-2.53,2.18-4.4,2.18h-3.52c-1.19,0-2.03-.33-2.51-1-.48-.66-.73-1.78-.73-3.36v-12.88c0-1.28.22-2.22.67-2.82.45-.59,1.17-.89,2.16-.89h3.92c1.19,0,2.24.36,3.15,1.06.91.71,1.61,1.73,2.1,3.06.49,1.33.74,2.91.74,4.74v3.71Z"/>
  <path class="cls-1" d="m255.03,4.79h2.4c1.19,0,2.04.33,2.54,1,.5.67.75,1.79.75,3.37v35.16c0,1.58-.25,2.7-.75,3.36-.5.67-1.35,1-2.54,1h-2.4v2.68h31.33v-19.74h-1.73c-.39,4.58-.92,8.05-1.59,10.4-.67,2.36-1.73,4.06-3.17,5.1-1.45,1.04-3.56,1.56-6.35,1.56h-3.57c-1.19,0-2.04-.33-2.54-1-.5-.66-.75-1.78-.75-3.36v-8.07c0-2.24.14-4.04.43-5.39.29-1.35.75-2.33,1.38-2.94.63-.61,1.47-.91,2.52-.91,1.73,0,3.02.81,3.85,2.42.83,1.62,1.31,4.25,1.43,7.91h1.78V14.78h-1.78c-.14,3.41-.62,5.88-1.44,7.42-.82,1.53-2.1,2.3-3.84,2.3-1.05,0-1.9-.29-2.52-.87-.63-.59-1.09-1.51-1.38-2.78-.29-1.27-.43-2.96-.43-5.06v-6.63c0-1.58.24-2.7.73-3.37.48-.66,1.32-1,2.51-1h4.72c2.18,0,3.92.46,5.23,1.39,1.31.92,2.33,2.45,3.07,4.58.74,2.13,1.31,5.13,1.72,9h1.73V2.11h-31.33v2.68Z"/>
  <path class="cls-1" d="m326.34,43.69c0,1.08-.12,1.88-.36,2.42-.24.54-.59.81-1.04.81-.53,0-.96-.25-1.31-.76-.35-.5-.78-1.48-1.29-2.92l-3.03-8.41c-1.14-3.18-2.37-5.41-3.7-6.7-.44-.41-.66-.8-.66-1.17,0-.39.3-.72.92-1,1.75-.76,3.28-1.72,4.6-2.9,1.32-1.18,2.33-2.49,3.05-3.95.71-1.45,1.07-2.95,1.07-4.48,0-2.13-.54-4.15-1.61-6.08-1.07-1.92-2.61-3.48-4.61-4.67-2.01-1.19-4.35-1.79-7.04-1.79h-18.43v2.68h2.4c1.19,0,2.04.33,2.54.99.5.67.75,1.79.75,3.36v35.16c0,1.58-.25,2.7-.75,3.36-.5.67-1.35,1-2.54,1h-2.4v2.68h17.34v-2.68h-2.42c-1.19,0-2.04-.33-2.54-1-.5-.66-.75-1.79-.75-3.36v-12.5c0-1.49.26-2.58.78-3.26.52-.69,1.34-1.03,2.46-1.03h2.73c1.48,0,2.56.53,3.25,1.58.69,1.05,1.1,2.77,1.24,5.15l.36,7.31c.19,3.66.83,6.35,1.92,8.07,1.1,1.72,2.74,2.58,4.93,2.58,1.94,0,3.43-.74,4.47-2.23,1.04-1.49,1.57-3.49,1.57-6.01v-3.74h-1.89v3.47Zm-14.87-18.85h-3.72c-1.12,0-1.94-.34-2.46-1.03-.52-.69-.78-1.77-.78-3.26v-11.4c0-1.58.24-2.7.73-3.36.48-.66,1.32-.99,2.51-.99h3.72c1.79,0,3.2.71,4.23,2.15,1.04,1.43,1.56,3.39,1.56,5.89v3.64c0,5.59-1.93,8.38-5.79,8.38Z"/>
  <path class="cls-1" d="m364.99,43.69c0,1.08-.12,1.88-.36,2.42-.24.54-.59.81-1.04.81-.53,0-.96-.25-1.31-.76-.35-.5-.78-1.48-1.29-2.92l-3.03-8.41c-1.14-3.18-2.37-5.41-3.7-6.7-.44-.41-.66-.8-.66-1.17,0-.39.3-.72.92-1,1.75-.76,3.28-1.72,4.6-2.9,1.32-1.18,2.33-2.49,3.05-3.95.71-1.45,1.07-2.95,1.07-4.48,0-2.13-.54-4.15-1.61-6.08-1.07-1.92-2.61-3.48-4.61-4.67-2.01-1.19-4.35-1.79-7.04-1.79h-18.43v2.68h2.4c1.19,0,2.04.33,2.54.99.5.67.75,1.79.75,3.36v35.16c0,1.58-.25,2.7-.75,3.36-.5.67-1.35,1-2.54,1h-2.4v2.68h17.34v-2.68h-2.42c-1.19,0-2.04-.33-2.54-1-.5-.66-.75-1.79-.75-3.36v-12.5c0-1.49.26-2.58.78-3.26.52-.69,1.34-1.03,2.46-1.03h2.73c1.48,0,2.56.53,3.25,1.58.69,1.05,1.1,2.77,1.24,5.15l.36,7.31c.19,3.66.83,6.35,1.92,8.07,1.1,1.72,2.74,2.58,4.93,2.58,1.94,0,3.43-.74,4.47-2.23,1.04-1.49,1.57-3.49,1.57-6.01v-3.74h-1.89v3.47Zm-14.87-18.85h-3.72c-1.12,0-1.94-.34-2.46-1.03-.52-.69-.78-1.77-.78-3.26v-11.4c0-1.58.24-2.7.73-3.36.48-.66,1.32-.99,2.51-.99h3.72c1.79,0,3.2.71,4.23,2.15,1.04,1.43,1.56,3.39,1.56,5.89v3.64c0,5.59-1.93,8.38-5.79,8.38Z"/>
  <path class="cls-1" d="m389.18,2.11v2.68h1.15c.92,0,1.64.3,2.18.91.53.61.8,1.44.8,2.49,0,.62-.08,1.25-.23,1.89-.15.64-.46,1.56-.92,2.75l-3.24,8.34c-.31.85-.67,1.48-1.1,1.91-.43.42-.87.63-1.33.63s-.87-.21-1.29-.63c-.42-.42-.77-1.03-1.06-1.84l-4.38-12.02c-.27-.73-.41-1.45-.41-2.16s.18-1.26.55-1.67c.36-.4.83-.6,1.39-.6h2.24v-2.68h-17.18v2.68h1.1c1.34,0,2.45.39,3.33,1.18.88.79,1.66,2.11,2.36,3.97l8.21,21.94v12.43c0,1.58-.25,2.7-.75,3.36-.5.67-1.35,1-2.54,1h-2.42v2.68h17.57v-2.68h-2.42c-1.19,0-2.04-.33-2.54-1-.5-.66-.75-1.78-.75-3.36v-13.63l8.26-20.6c.7-1.74,1.57-3.06,2.63-3.95,1.05-.89,2.25-1.34,3.59-1.34h.71v-2.68h-13.51Z"/>
</svg>