<?xml version="1.0" encoding="UTF-8" standalone="no"?>
<!-- Created with Inkscape (http://www.inkscape.org/) -->

<svg
   width="59"
   height="18"
   viewBox="0 0 15.610416 4.7625"
   version="1.1"
   id="svg1"
   xml:space="preserve"
   inkscape:export-filename="academybychris.svg"
   inkscape:export-xdpi="96"
   inkscape:export-ydpi="96"
   xmlns:inkscape="http://www.inkscape.org/namespaces/inkscape"
   xmlns:sodipodi="http://sodipodi.sourceforge.net/DTD/sodipodi-0.dtd"
   xmlns="http://www.w3.org/2000/svg"
   xmlns:svg="http://www.w3.org/2000/svg"><sodipodi:namedview
     id="namedview1"
     pagecolor="#ffffff"
     bordercolor="#cccccc"
     borderopacity="1"
     inkscape:showpageshadow="0"
     inkscape:pageopacity="1"
     inkscape:pagecheckerboard="0"
     inkscape:deskcolor="#d1d1d1"
     inkscape:document-units="px"
     inkscape:lockguides="true"
     showguides="true"><sodipodi:guide
       position="21.611671,5.3972803"
       orientation="0,-1"
       id="guide2"
       inkscape:locked="true" /></sodipodi:namedview><defs
     id="defs1"><style
       id="style1">&#10;      .cls-1 {&#10;        fill: #694a26;&#10;        stroke-width: 0px;&#10;      }&#10;    </style><style
       id="style1-0">&#10;      .cls-1 {&#10;        fill: #694a26;&#10;        stroke-width: 0px;&#10;      }&#10;    </style><style
       id="style1-1">&#10;      .cls-1 {&#10;        fill: #694a26;&#10;        stroke-width: 0px;&#10;      }&#10;    </style></defs><g
     inkscape:label="Layer 1"
     inkscape:groupmode="layer"
     id="layer1"><g
       id="g1"
       transform="matrix(0.05537308,0,0,0.05537308,-0.67867169,3.4297886)"><path
         class="cls-1"
         d="m 37.38811,-53.070864 h 4.351251 v -5.211665 H 21.892417 v 5.211665 h 4.400416 l -10.726527,27.992222 h -3.138472 v 5.211667 H 26.21089 v -5.211667 h -4.154583 l 2.433749,-6.981667 13.914166,-0.04917 2.41736,7.030832 h -4.203748 v 5.211667 h 14.151804 v -5.211668 H 47.844221 Z M 26.128945,-37.28017 31.52089,-50.784614 h 0.106526 l 5.309999,13.455279 z"
         id="path1" /><path
         class="cls-1"
         d="m 102.00132,-25.078642 h -4.1546 l 2.43376,-6.981667 13.91416,-0.04917 2.41736,7.030832 h -4.20374 v 5.211667 h 14.15181 v -5.211667 h -2.92543 l -10.45611,-27.992219 h 4.35125 v -5.211663 H 97.682838 v 5.211665 h 4.400422 l -10.726529,27.992222 h -3.138477 v 5.211667 h 13.783066 z m 5.30999,-25.705972 h 0.10653 l 5.31,13.455279 -10.80849,0.04917 z"
         id="path2" /><path
         class="cls-1"
         d="m 81.195611,-32.63392 c -2.130556,4.261111 -5.400141,7.235696 -11.144446,7.235696 -8.145277,0 -12.848889,-6.334306 -12.848889,-13.676529 0,-7.342222 4.810139,-13.676526 12.848889,-13.676526 2.179722,0 4.654444,0.639165 6.465417,1.860139 1.810974,1.171805 3.245,2.876249 3.777638,5.05597 h 5.588616 V -58.290724 H 80.29422 v 2.450139 c -3.089306,-2.925417 -9.071249,-3.302361 -10.292221,-3.302361 -9.202361,0 -19.715834,6.334305 -19.715834,19.846944 0,11.496805 8.694306,20.273055 19.765,20.273055 8.358335,0 15.299033,-4.416806 17.527923,-13.619167 h -6.383477 z"
         id="path3" /><path
         class="cls-1"
         d="m 161.20616,-25.291697 c 1.17181,-0.901389 5.95737,-6.12125 5.95737,-13.307777 0,-9.202361 -5.80168,-14.528749 -7.2357,-15.487499 -1.75361,-1.171806 -4.99862,-4.203751 -14.25833,-4.203751 h -15.09415 v 5.211666 h 4.09722 v 27.992222 h -4.09722 v 5.211666 h 14.72541 c 8.62056,0 11.86555,-2.28625 15.9136,-5.424721 z m -19.6175,-27.779167 h 4.77737 c 10.48068,0 13.88958,7.719169 13.88958,13.889585 0,6.916109 -3.72847,14.209165 -13.35696,14.209165 h -5.30999 z"
         id="path4" /><polygon
         class="cls-1"
         points="293.55,20.3 293.55,51.34 288.29,51.34 288.29,57.71 305.95,57.71 305.95,51.34 301.34,51.34 301.34,17.18 305.95,17.18 305.95,10.82 289.82,10.82 278.1,38.86 277.97,38.86 266.85,10.82 250,10.82 250,17.18 254.67,17.18 254.67,51.34 250,51.34 250,57.71 267.73,57.71 267.73,51.34 262.47,51.34 262.47,20.3 262.6,20.3 275.56,51.99 280.51,51.99 293.42,20.3 "
         id="polygon4"
         transform="matrix(0.81944441,0,0,0.81944441,3.7417229,-67.148919)" /><polygon
         class="cls-1"
         points="202.57,51.34 202.57,57.71 242.99,57.71 242.99,44.49 235.52,44.49 235.52,51.34 216.02,51.34 216.02,37.99 225.26,37.99 225.26,43.32 231.5,43.32 231.5,25.26 225.26,25.26 225.26,30.59 216.02,30.59 216.02,17.18 235.52,17.18 235.52,24.03 242.99,24.03 242.99,10.82 202.57,10.82 202.57,17.18 207.57,17.18 207.57,51.34 "
         id="polygon5"
         transform="matrix(0.81944441,0,0,0.81944441,3.7417229,-67.148919)" /><polygon
         class="cls-1"
         points="337.82,17.18 342.32,17.18 332.77,33.04 332.64,33.04 322.59,17.18 327.39,17.18 327.39,10.82 309.09,10.82 309.09,17.18 313.63,17.18 327.64,39.16 327.64,51.34 322.25,51.34 322.25,57.71 341.34,57.71 341.34,51.34 336.08,51.34 336.08,39.54 350.29,17.18 354.63,17.18 354.63,10.82 337.82,10.82 "
         id="polygon6"
         transform="matrix(0.81944441,0,0,0.81944441,3.7417229,-67.148919)" /><path
         class="cls-1"
         d="m 60.947137,8.4448288 c -1.163611,0 -2.294443,0.53264 -3.040137,1.376667 v -6.686667 h -3.908751 v 2.015835 h 1.466807 V 16.442604 h -1.466807 v 2.015834 h 3.589166 V 17.09816 h 0.04098 c 0.745694,1.016112 1.909304,1.573332 3.310556,1.573332 2.482916,0 4.752776,-2.040417 4.752776,-5.121523 0,-3.081112 -2.26986,-5.1133342 -4.752776,-5.1133342 z m -0.508055,8.1944422 c -1.868332,0 -2.802499,-1.483192 -2.802499,-3.146663 0,-1.573333 0.934167,-3.015557 2.802499,-3.015557 1.868333,0 2.827083,1.442224 2.827083,3.015557 0,1.655275 -0.934166,3.146663 -2.827083,3.146663 z"
         id="path6" /><polygon
         class="cls-1"
         points="83.46,100.87 80.92,94.97 82.53,94.97 82.53,92.5 76.83,92.5 76.83,94.97 77.89,94.97 81.94,104.24 80.46,107.4 78.39,107.4 78.39,109.86 85.41,109.86 85.41,107.4 83.44,107.4 89.24,94.97 90.56,94.97 90.56,92.5 84.71,92.5 84.71,94.97 86.34,94.97 83.52,100.87 "
         id="polygon7"
         transform="matrix(0.81944441,0,0,0.81944441,3.7417229,-67.148919)" /><path
         class="cls-1"
         d="m 92.323668,16.254132 c -3.244998,0 -5.031383,-2.523886 -5.031383,-5.457498 0,-2.9336092 1.82736,-5.4575002 5.031383,-5.4575002 0.868617,0 1.761799,0.25403 2.482923,0.745695 0.721106,0.467084 1.294727,1.147223 1.507764,2.015834 h 2.228907 v -4.965834 h -2.228907 v 0.975141 c -1.229156,-1.171806 -3.523598,-1.319306 -4.015269,-1.319306 -3.671104,0 -7.768332,2.523889 -7.768332,7.9158322 0,4.588888 3.37611,8.087914 7.792914,8.087914 3.335152,0 6.006539,-1.761807 6.899729,-5.432914 h -2.548476 c -0.85222,1.696249 -2.056803,2.88444 -4.351253,2.88444 z"
         id="path7" /><path
         class="cls-1"
         d="m 111.34297,11.30469 c 0,-2.2043052 -2.12237,-2.8680552 -3.04013,-2.8680552 -0.72113,0 -1.3357,0.1475 -1.90931,0.401529 -0.57361,0.254025 -1.10624,0.639165 -1.58972,1.081666 v -6.793195 h -3.86779 v 2.015834 h 1.42584 V 16.434409 h -1.42584 v 2.015834 h 5.41654 v -2.015834 h -1.54875 v -4.588884 c 0.63917,-0.745696 1.54875,-1.376668 2.57305,-1.376668 0.89321,0 1.53235,0.573612 1.53235,1.442222 v 4.52333 h -1.40125 v 2.015834 h 5.26904 v -2.015834 h -1.42584 v -5.137914 z"
         id="path8" /><path
         class="cls-1"
         d="m 119.68492,8.4448288 c -1.12265,0 -1.78639,0.82764 -1.80278,1.548751 h -0.13111 v -1.335696 h -3.63014 v 2.0158352 h 1.18819 v 5.777079 h -1.18819 v 2.015835 h 5.00681 v -2.015835 h -1.37667 v -5.899996 h 0.13111 c 0.13112,0.786667 0.86862,1.401249 1.80278,1.401249 0.93415,0 1.82735,-0.680138 1.82735,-1.737222 0,-1.1472212 -0.93416,-1.7618052 -1.82735,-1.7618052 z"
         id="path9" /><rect
         class="cls-1"
         x="123.07743"
         y="4.2984343"
         width="3.3761113"
         height="2.6304169"
         id="rect9" /><polygon
         class="cls-1"
         points="145.01,102.01 145.01,104.48 151.57,104.48 151.57,102.01 149.75,102.01 149.75,92.5 144.96,92.5 144.96,94.97 146.77,94.97 146.77,102.01 "
         id="polygon9"
         transform="matrix(0.81944441,0,0,0.81944441,3.7417229,-67.148919)" /><path
         class="cls-1"
         d="m 131.82909,11.30469 c 0,-0.909583 0.89319,-1.081665 1.58973,-1.081665 0.53264,0 1.0161,0.131109 1.37665,0.385137 0.38514,0.254028 0.63917,0.655557 0.74569,1.212778 h 2.05681 V 8.6578838 h -1.95027 v 0.532641 c -0.68015,-0.508056 -1.50779,-0.745696 -2.36,-0.745696 -2.01585,0 -3.67111,1.016111 -3.67111,3.2040282 0,4.121802 6.43263,2.163332 6.43263,4.269302 0,0.893194 -1.10625,0.975139 -1.78638,0.975139 -0.61459,0 -1.12263,-0.1475 -1.54876,-0.4425 -0.40151,-0.295 -0.69652,-0.745695 -0.90957,-1.319302 h -2.0978 v 3.335137 h 2.12238 v -0.639167 c 0.65555,0.639167 1.80277,0.852221 2.69597,0.852221 2.01584,0 3.76125,-0.803056 3.73666,-3.0975 -0.0409,-4.37583 -6.43263,-2.441942 -6.43263,-4.269302 z"
         id="path10" /><path
         class="cls-1"
         d="m 163.54159,16.639271 c -1.78639,0 -2.72056,-1.425831 -2.72056,-3.146663 0,-1.614307 0.93417,-3.015557 2.67139,-3.015557 0.53265,0 0.97515,0.172082 1.37666,0.467083 0.38514,0.295 0.70474,0.696529 0.97514,1.10625 h 1.67987 V 8.6496898 h -1.95027 v 0.803055 c -0.63918,-0.680137 -1.57335,-1.01611 -2.50751,-1.01611 -3.04015,0 -4.69542,2.5238902 -4.69542,5.0559732 0,3.146663 2.16334,5.178884 4.94945,5.178884 1.99944,0 3.20401,-0.893195 4.52332,-2.25347 l -1.50777,-1.401248 c -0.63917,0.721107 -1.72082,1.614301 -2.8025,1.614301 z"
         id="path11" /><path
         class="cls-1"
         d="m 179.56991,11.30469 c 0,-2.2043052 -2.12233,-2.8680552 -3.04014,-2.8680552 -0.72111,0 -1.33569,0.1475 -1.90929,0.401529 -0.57363,0.254025 -1.10627,0.639165 -1.58973,1.081666 v -6.793195 h -3.86779 v 2.015834 h 1.42586 V 16.434409 h -1.42586 v 2.015834 h 5.41655 v -2.015834 h -1.54876 v -4.588884 c 0.63915,-0.745696 1.54876,-1.376668 2.56485,-1.376668 0.89321,0 1.53236,0.573612 1.53236,1.442222 v 4.52333 h -1.40125 v 2.015834 h 5.26904 v -2.015834 h -1.42584 v -5.137914 z"
         id="path12" /><path
         class="cls-1"
         d="m 187.14158,8.4448288 c -3.01556,0 -5.28541,2.0404172 -5.28541,5.1133332 0,3.072913 2.26985,5.121525 5.28541,5.121525 3.37611,0 4.71181,-2.122362 4.90849,-3.0975 h -2.44197 c -0.10651,0.131111 -0.72109,1.065278 -2.25345,1.065278 -1.53238,0 -2.82709,-0.721112 -2.97459,-2.376385 h 7.9404 c 0,-3.351529 -1.80277,-5.8180562 -5.17888,-5.8180562 z m -2.76152,4.1791662 c 0.27861,-1.319305 1.46679,-2.146944 2.76152,-2.146944 1.4832,0.106528 2.73695,1.040695 2.73695,2.146944 z"
         id="path13" /><polygon
         class="cls-1"
         points="244.44,94.97 244.44,92.5 238.63,92.5 238.63,94.97 240.11,94.97 237.93,100.46 237.88,100.46 235.81,94.97 237.08,94.97 237.08,92.5 231.22,92.5 231.22,94.97 232.62,94.97 236.64,104.63 238.71,104.63 243.06,94.97 "
         id="polygon13"
         transform="matrix(0.81944441,0,0,0.81944441,3.7417229,-67.148919)" /><path
         class="cls-1"
         d="m 212.76559,10.116496 h -0.0656 c -0.80304,-1.0652772 -1.97487,-1.6798612 -3.20404,-1.6798612 -2.58943,0 -4.8593,2.0404162 -4.8593,5.1133342 0,3.072913 2.26987,5.121523 4.8593,5.121523 1.29474,0 2.50752,-0.680138 3.22863,-1.638889 h 0.0409 v 1.425835 h 3.54819 v -2.015834 h -1.54874 v -5.77708 h 1.54874 V 8.6496898 h -3.54819 z m -2.88443,6.514579 c -1.86833,0 -2.8025,-1.483192 -2.8025,-3.146663 0,-1.573333 0.93417,-3.015555 2.8025,-3.015555 1.86835,0 2.67139,1.442222 2.67139,3.015555 0,1.655278 -0.78666,3.146663 -2.67139,3.146663 z"
         id="path14" /><path
         class="cls-1"
         d="m 223.5495,8.4448288 c -1.12265,0 -1.78641,0.82764 -1.80278,1.548751 h -0.13112 v -1.335696 h -3.63014 v 2.0158352 h 1.1882 v 5.777079 h -1.1882 v 2.015835 h 5.015 v -2.015835 h -1.37666 v -5.899996 h 0.1311 c 0.13112,0.786667 0.86862,1.401249 1.80279,1.401249 0.93416,0 1.82737,-0.680138 1.82737,-1.737222 0,-1.1472212 -0.93417,-1.7618052 -1.82737,-1.7618052 z"
         id="path15" /><path
         class="cls-1"
         d="m 232.02255,8.4448288 c -1.12263,0 -1.7864,0.82764 -1.80277,1.548751 h -0.13113 v -1.335696 h -3.63013 v 2.0158352 h 1.18819 v 5.777079 h -1.18819 v 2.015835 h 5.015 v -2.015835 h -1.37667 v -5.899996 h 0.13111 c 0.13112,0.786667 0.86863,1.401249 1.80279,1.401249 0.93416,0 1.82736,-0.680138 1.82736,-1.737222 0,-1.1472212 -0.93417,-1.7618052 -1.82736,-1.7618052 z"
         id="path16" /><polygon
         class="cls-1"
         points="282.1,102.01 282.1,104.48 288.65,104.48 288.65,102.01 286.84,102.01 286.84,92.5 282.05,92.5 282.05,94.97 283.86,94.97 283.86,102.01 "
         id="polygon16"
         transform="matrix(0.81944441,0,0,0.81944441,3.7417229,-67.148919)" /><rect
         class="cls-1"
         x="235.41504"
         y="4.2984343"
         width="3.3761113"
         height="2.6304169"
         id="rect16" /><path
         class="cls-1"
         d="m 249.21451,10.116496 h -0.0656 c -0.80306,-1.0652772 -1.97487,-1.6798612 -3.20404,-1.6798612 -2.58944,0 -4.85929,2.0404162 -4.85929,5.1133342 0,3.072913 2.26985,5.121523 4.85929,5.121523 1.29473,0 2.5075,-0.680138 3.22862,-1.638889 h 0.0409 v 1.425835 h 3.54819 v -2.015834 h -1.54876 v -5.77708 h 1.54876 V 8.6496898 h -3.54819 z m -2.88444,6.514579 c -1.86835,0 -2.80252,-1.483192 -2.80252,-3.146663 0,-1.573333 0.93417,-3.015555 2.80252,-3.015555 1.86831,0 2.67137,1.442222 2.67137,3.015555 0,1.655278 -0.78666,3.146663 -2.67137,3.146663 z"
         id="path17" /><polygon
         class="cls-1"
         points="187.11,91.04 187.11,85.77 171.33,85.77 171.33,88.31 173.33,88.31 173.33,101.94 171.33,101.94 171.33,104.48 187.11,104.48 187.11,99.2 184.13,99.2 184.13,101.94 176.7,101.94 176.7,96.61 180.04,96.61 180.04,98.73 182.52,98.73 182.52,91.53 180.04,91.53 180.04,93.66 176.7,93.66 176.7,88.31 184.13,88.31 184.13,91.04 "
         id="polygon17"
         transform="matrix(0.81944441,0,0,0.81944441,3.7417229,-67.148919)" /></g></g></svg>
