<?xml version="1.0" encoding="UTF-8" standalone="no"?>
<svg
   id="Layer_1"
   version="1.1"
   viewBox="0 0 789.52686 229.86131"
   sodipodi:docname="Academy_by_BW.svg"
   width="789.52686"
   height="229.86131"
   inkscape:version="1.3 (0e150ed, 2023-07-21)"
   xmlns:inkscape="http://www.inkscape.org/namespaces/inkscape"
   xmlns:sodipodi="http://sodipodi.sourceforge.net/DTD/sodipodi-0.dtd"
   xmlns="http://www.w3.org/2000/svg"
   xmlns:svg="http://www.w3.org/2000/svg">
  <sodipodi:namedview
     id="namedview23"
     pagecolor="#ffffff"
     bordercolor="#cccccc"
     borderopacity="1"
     inkscape:showpageshadow="0"
     inkscape:pageopacity="1"
     inkscape:pagecheckerboard="0"
     inkscape:deskcolor="#d1d1d1"
     inkscape:zoom="0.95959596"
     inkscape:cx="394.95789"
     inkscape:cy="115.15263"
     inkscape:window-width="1872"
     inkscape:window-height="1212"
     inkscape:window-x="1763"
     inkscape:window-y="25"
     inkscape:window-maximized="0"
     inkscape:current-layer="Layer_1" />
  <!-- Generator: Adobe Illustrator 29.1.0, SVG Export Plug-In . SVG Version: 2.1.0 Build 142)  -->
  <defs
     id="defs1">
    <style
       id="style1">&#10;      .st0 {&#10;        fill: #64482b;&#10;      }&#10;    </style>
  </defs>
  <g
     id="g6"
     transform="matrix(7.3111107,0,0,7.3111107,-2500.473,-2122.2692)">
    <path
       class="st0"
       d="m 351.56,292.6 h 1.67 v -2 h -7.6 v 2 h 1.69 l -4.11,10.72 h -1.2 v 2 h 5.28 v -2 h -1.59 l 0.93,-2.67 5.33,-0.02 0.92,2.69 h -1.61 v 2 h 5.42 v -2 h -1.12 z m -4.31,6.05 2.07,-5.17 h 0.04 l 2.03,5.16 -4.14,0.02 z"
       id="path1" />
    <path
       class="st0"
       d="m 376.32,303.32 h -1.59 l 0.93,-2.67 5.33,-0.02 0.92,2.69 h -1.61 v 2 h 5.42 v -2 h -1.12 l -4.01,-10.72 h 1.67 v -2 h -7.6 v 2 h 1.69 l -4.11,10.72 h -1.2 v 2 h 5.28 z m 2.03,-9.84 h 0.04 l 2.03,5.16 -4.14,0.02 2.07,-5.17 z"
       id="path2" />
    <path
       class="st0"
       d="m 368.35,300.43 c -0.82,1.63 -2.07,2.77 -4.27,2.77 -3.12,0 -4.92,-2.43 -4.92,-5.24 0,-2.81 1.84,-5.24 4.92,-5.24 0.84,0 1.78,0.24 2.48,0.71 0.69,0.45 1.24,1.1 1.45,1.94 h 2.14 v -4.77 h -2.14 v 0.94 c -1.18,-1.12 -3.47,-1.26 -3.94,-1.26 -3.53,0 -7.55,2.43 -7.55,7.6 0,4.4 3.33,7.77 7.57,7.77 3.2,0 5.86,-1.69 6.72,-5.22 h -2.45 z"
       id="path3" />
    <path
       class="st0"
       d="m 399,303.24 c 0.45,-0.35 2.28,-2.34 2.28,-5.1 0,-3.53 -2.22,-5.57 -2.77,-5.93 -0.67,-0.45 -1.92,-1.61 -5.46,-1.61 h -5.78 v 2 h 1.57 v 10.72 h -1.57 v 2 h 5.64 c 3.3,0 4.55,-0.88 6.1,-2.08 z m -7.52,-10.64 h 1.83 c 4.02,0 5.32,2.96 5.32,5.32 0,2.65 -1.43,5.44 -5.12,5.44 h -2.03 z"
       id="path4" />
    <polygon
       class="st0"
       points="417.15,290.6 417.15,292.6 418.62,292.6 418.62,303.32 417.15,303.32 417.15,305.32 422.72,305.32 422.72,303.32 421.07,303.32 421.07,293.58 421.11,293.58 425.18,303.53 426.73,303.53 430.78,293.58 430.82,293.58 430.82,303.32 429.17,303.32 429.17,305.32 434.72,305.32 434.72,303.32 433.27,303.32 433.27,292.6 434.72,292.6 434.72,290.6 429.66,290.6 425.98,299.41 425.94,299.41 422.44,290.6 "
       id="polygon4" />
    <polygon
       class="st0"
       points="406.49,303.32 406.49,299.13 409.39,299.13 409.39,300.8 411.35,300.8 411.35,295.14 409.39,295.14 409.39,296.81 406.49,296.81 406.49,292.6 412.61,292.6 412.61,294.75 414.95,294.75 414.95,290.6 402.27,290.6 402.27,292.6 403.84,292.6 403.84,303.32 402.27,303.32 402.27,305.32 414.95,305.32 414.95,301.17 412.61,301.17 412.61,303.32 "
       id="polygon5" />
    <polygon
       class="st0"
       points="443.14,297.58 443.1,297.58 439.94,292.6 441.45,292.6 441.45,290.6 435.7,290.6 435.7,292.6 437.13,292.6 441.53,299.5 441.53,303.32 439.84,303.32 439.84,305.32 445.83,305.32 445.83,303.32 444.18,303.32 444.18,299.62 448.64,292.6 450,292.6 450,290.6 444.72,290.6 444.72,292.6 446.14,292.6 "
       id="polygon6" />
  </g>
  <g
     id="g23"
     transform="matrix(7.3111107,0,0,7.3111107,-2500.473,-2122.2692)">
    <path
       class="st0"
       d="m 354.1,315.02 h -0.55 v -0.76 h 1.48 v 2.53 c 0.28,-0.32 0.71,-0.52 1.15,-0.52 0.94,0 1.8,0.77 1.8,1.93 0,1.16 -0.86,1.93 -1.8,1.93 -0.53,0 -0.97,-0.21 -1.25,-0.59 h -0.02 v 0.51 h -1.36 v -0.76 h 0.55 z m 2.94,3.16 c 0,-0.59 -0.35,-1.14 -1.07,-1.14 -0.72,0 -1.06,0.55 -1.06,1.14 0,0.63 0.35,1.19 1.06,1.19 0.71,0 1.07,-0.56 1.07,-1.19 z"
       id="path6" />
    <path
       class="st0"
       d="m 360.96,320.96 v 0.76 h -2.17 v -0.76 h 0.64 l 0.46,-0.98 -1.25,-2.87 h -0.33 v -0.76 h 1.76 v 0.76 h -0.5 l 0.79,1.83 h 0.02 l 0.87,-1.83 h -0.51 v -0.76 h 1.81 v 0.76 h -0.41 l -1.8,3.85 h 0.61 z"
       id="path7" />
    <path
       class="st0"
       d="m 364.93,320.05 v -0.79 h 0.61 v -4.22 h -0.61 v -0.79 h 2.06 c 1.36,0 2,0.42 2,1.45 0,0.57 -0.32,0.95 -0.83,1.17 0.67,0.27 1.05,0.71 1.05,1.45 0,0.96 -0.58,1.52 -1.5,1.68 -0.38,0.06 -1.02,0.04 -1.27,0.04 h -1.52 z m 1.66,-3.53 h 0.42 c 0.44,0 0.95,-0.13 0.95,-0.78 0,-0.65 -0.6,-0.71 -0.86,-0.71 h -0.51 z m 0,2.75 h 0.43 c 0.69,0 1.15,-0.22 1.15,-0.96 0,-0.88 -0.75,-0.99 -0.97,-0.99 h -0.62 v 1.96 z"
       id="path8" />
    <path
       class="st0"
       d="m 369.89,320.05 v -0.76 h 0.56 v -4.27 h -0.56 v -0.76 h 1.48 v 5.03 h 0.56 v 0.76 h -2.05 z"
       id="path9" />
    <path
       class="st0"
       d="m 376.31,319.29 h 0.59 v 0.76 h -1.34 v -0.54 h -0.02 c -0.27,0.36 -0.73,0.62 -1.22,0.62 -0.98,0 -1.84,-0.77 -1.84,-1.93 0,-1.16 0.86,-1.93 1.84,-1.93 0.47,0 0.91,0.23 1.21,0.63 h 0.02 v -0.55 h 1.34 v 0.76 h -0.59 v 2.18 z m -0.84,-1.11 c 0,-0.59 -0.3,-1.14 -1.01,-1.14 -0.71,0 -1.06,0.55 -1.06,1.14 0,0.63 0.35,1.19 1.06,1.19 0.71,0 1.01,-0.56 1.01,-1.19 z"
       id="path10" />
    <path
       class="st0"
       d="m 380.21,317.63 c -0.1,-0.15 -0.22,-0.3 -0.37,-0.42 -0.15,-0.11 -0.32,-0.18 -0.52,-0.18 -0.66,0 -1.01,0.53 -1.01,1.14 0,0.65 0.35,1.19 1.03,1.19 0.41,0 0.82,-0.34 1.06,-0.61 l 0.57,0.53 c -0.5,0.51 -0.95,0.85 -1.71,0.85 -1.05,0 -1.87,-0.77 -1.87,-1.96 0,-0.96 0.63,-1.91 1.77,-1.91 0.35,0 0.71,0.13 0.95,0.38 v -0.3 h 0.74 v 1.28 h -0.63 z"
       id="path11" />
    <path
       class="st0"
       d="m 385.36,319.29 v 0.76 h -1.82 v -0.76 h 0.32 l -1.02,-1.07 v 1.07 h 0.39 v 0.76 h -1.77 v -0.76 h 0.46 v -4.27 h -0.44 v -0.76 h 1.36 v 3.78 l 1.05,-0.93 h -0.37 v -0.76 h 1.84 v 0.76 h -0.35 l -1.12,0.99 v 0.02 l 1.11,1.17 h 0.35 z"
       id="path12" />
    <path
       class="st0"
       d="m 388.31,316.35 h 0.74 v 1.2 h -0.78 c -0.04,-0.21 -0.14,-0.36 -0.28,-0.46 -0.14,-0.1 -0.32,-0.14 -0.52,-0.14 -0.27,0 -0.6,0.06 -0.6,0.41 0,0.69 2.41,-0.04 2.43,1.61 0,0.87 -0.65,1.17 -1.41,1.17 -0.34,0 -0.77,-0.08 -1.02,-0.32 v 0.24 h -0.8 v -1.26 h 0.79 c 0.08,0.22 0.19,0.39 0.35,0.5 0.16,0.11 0.35,0.17 0.59,0.17 0.26,0 0.67,-0.03 0.67,-0.37 0,-0.79 -2.43,-0.06 -2.43,-1.61 0,-0.83 0.63,-1.21 1.39,-1.21 0.32,0 0.63,0.09 0.89,0.28 v -0.2 z"
       id="path13" />
    <path
       class="st0"
       d="m 390.42,316.35 v -1.28 h 0.92 v 1.28 h 0.65 v 0.76 h -0.65 v 1.95 c 0,0.27 0.13,0.3 0.36,0.29 l 0.23,-0.02 v 0.72 c -0.14,0.02 -0.51,0.08 -0.66,0.08 -0.69,0 -0.86,-0.26 -0.86,-0.9 v -2.13 h -0.55 v -0.76 h 0.55 z"
       id="path14" />
    <path
       class="st0"
       d="m 394.55,320.13 c -1.14,0 -2,-0.77 -2,-1.93 0,-1.16 0.86,-1.93 2,-1.93 1.14,0 2,0.77 2,1.93 0,1.16 -0.86,1.93 -2,1.93 z m 0,-3.09 c -0.75,0 -1.07,0.59 -1.07,1.16 0,0.57 0.32,1.16 1.07,1.16 0.75,0 1.07,-0.59 1.07,-1.16 0,-0.57 -0.32,-1.16 -1.07,-1.16 z"
       id="path15" />
    <path
       class="st0"
       d="m 399.84,317.63 c -0.1,-0.15 -0.22,-0.3 -0.37,-0.42 -0.15,-0.11 -0.32,-0.18 -0.52,-0.18 -0.66,0 -1.01,0.53 -1.01,1.14 0,0.65 0.35,1.19 1.03,1.19 0.41,0 0.82,-0.34 1.06,-0.61 l 0.57,0.53 c -0.5,0.51 -0.95,0.85 -1.71,0.85 -1.05,0 -1.87,-0.77 -1.87,-1.96 0,-0.96 0.63,-1.91 1.77,-1.91 0.35,0 0.71,0.13 0.95,0.38 v -0.3 h 0.74 v 1.28 h -0.63 z"
       id="path16" />
    <path
       class="st0"
       d="m 404.99,319.29 v 0.76 h -1.82 v -0.76 h 0.32 l -1.02,-1.07 v 1.07 h 0.39 v 0.76 h -1.77 v -0.76 h 0.46 v -4.27 h -0.44 v -0.76 h 1.36 v 3.78 l 1.05,-0.93 h -0.37 v -0.76 h 1.84 v 0.76 h -0.35 l -1.12,0.99 v 0.02 l 1.11,1.17 h 0.35 z"
       id="path17" />
    <path
       class="st0"
       d="m 410.79,319.41 c -0.5,0.46 -0.99,0.77 -1.68,0.77 -0.84,0 -1.53,-0.62 -1.53,-1.49 0,-1.03 1.02,-1.57 1.03,-1.65 -0.35,-0.34 -0.67,-0.87 -0.67,-1.48 0,-0.73 0.59,-1.3 1.39,-1.3 0.73,0 1.32,0.57 1.32,1.3 0,0.61 -0.38,1.14 -0.83,1.5 0.02,0 0.92,0.95 1.02,1.04 0.23,-0.35 0.45,-0.72 0.59,-1.11 h -0.47 v -0.76 h 1.71 v 0.76 h -0.41 c -0.18,0.65 -0.5,1.21 -0.86,1.73 l 0.54,0.56 h 0.73 v 0.76 h -1.28 l -0.6,-0.64 z m -1.66,-1.77 c -0.31,0.27 -0.63,0.61 -0.63,1.07 0,0.39 0.29,0.64 0.67,0.64 0.4,0 0.78,-0.25 1.05,-0.52 l -1.08,-1.19 z m 0.73,-2.11 c 0,-0.34 -0.2,-0.59 -0.55,-0.59 -0.31,0 -0.59,0.25 -0.59,0.59 0,0.39 0.3,0.71 0.55,0.97 0.27,-0.23 0.58,-0.58 0.58,-0.97 z"
       id="path18" />
    <path
       class="st0"
       d="m 415.23,314.26 h 2 v 0.79 h -0.55 l 0.99,3.26 h 0.02 l 0.91,-3.26 h -0.52 v -0.79 h 2.06 v 0.79 h -0.53 l 0.97,3.26 h 0.02 l 0.95,-3.26 h -0.54 v -0.79 h 1.91 v 0.79 h -0.43 l -1.57,5.01 h -0.71 l -1.12,-3.55 h -0.02 l -1.07,3.55 h -0.71 l -1.65,-5.01 h -0.43 v -0.79 z"
       id="path19" />
    <path
       class="st0"
       d="m 423.37,318.47 c 0.06,0.63 0.55,0.9 1.12,0.9 0.57,0 0.81,-0.35 0.85,-0.4 h 0.92 c -0.07,0.37 -0.58,1.17 -1.85,1.17 -1.14,0 -2,-0.77 -2,-1.93 0,-1.16 0.86,-1.93 2,-1.93 1.28,0 1.96,0.93 1.96,2.2 h -3 z m 2.07,-0.62 c 0,-0.42 -0.47,-0.77 -1.03,-0.81 -0.49,0 -0.94,0.31 -1.04,0.81 h 2.08 z"
       id="path20" />
    <path
       class="st0"
       d="m 427.12,315.02 h -0.55 v -0.76 h 1.48 v 2.53 c 0.28,-0.32 0.71,-0.52 1.15,-0.52 0.94,0 1.8,0.77 1.8,1.93 0,1.16 -0.86,1.93 -1.8,1.93 -0.53,0 -0.97,-0.21 -1.25,-0.59 h -0.02 v 0.51 h -1.36 v -0.76 h 0.55 z m 2.95,3.16 c 0,-0.59 -0.35,-1.14 -1.07,-1.14 -0.72,0 -1.06,0.55 -1.06,1.14 0,0.63 0.35,1.19 1.06,1.19 0.71,0 1.07,-0.56 1.07,-1.19 z"
       id="path21" />
    <path
       class="st0"
       d="m 432.25,318.47 c 0.06,0.63 0.55,0.9 1.12,0.9 0.57,0 0.81,-0.35 0.85,-0.4 h 0.92 c -0.07,0.37 -0.58,1.17 -1.85,1.17 -1.14,0 -2,-0.77 -2,-1.93 0,-1.16 0.86,-1.93 2,-1.93 1.28,0 1.96,0.93 1.96,2.2 h -3 z m 2.08,-0.62 c 0,-0.42 -0.47,-0.77 -1.03,-0.81 -0.49,0 -0.94,0.31 -1.04,0.81 h 2.08 z"
       id="path22" />
    <path
       class="st0"
       d="m 437.04,316.85 h 0.05 c 0,-0.27 0.26,-0.59 0.68,-0.59 0.34,0 0.69,0.23 0.69,0.67 0,0.4 -0.32,0.66 -0.69,0.66 -0.37,0 -0.63,-0.23 -0.68,-0.53 h -0.05 v 2.23 h 0.52 v 0.76 h -1.89 v -0.76 h 0.45 v -2.18 h -0.45 v -0.76 h 1.37 v 0.51 z"
       id="path23" />
  </g>
</svg>
