<?xml version="1.0" encoding="UTF-8"?>
<svg id="Layer_1" data-name="Layer 1" xmlns="http://www.w3.org/2000/svg" viewBox="0 0 364 119.65">
  <defs>
    <style>
      .cls-1 {
        fill: #694a26;
        stroke-width: 0px;
      }
    </style>
  </defs>
  <path class="cls-1" d="m41.06,17.18h5.31v-6.36h-24.22v6.36h5.37l-13.09,34.16h-3.83v6.36h16.82v-6.36h-5.07l2.97-8.52,16.98-.06,2.95,8.58h-5.13v6.36h17.27v-6.36h-3.57l-12.76-34.16Zm-13.74,19.27l6.58-16.48h.13l6.48,16.42-13.19.06Z"/>
  <path class="cls-1" d="m119.91,51.34h-5.07l2.97-8.52,16.98-.06,2.95,8.58h-5.13v6.36h17.27v-6.36h-3.57l-12.76-34.16h5.31v-6.36h-24.22v6.36h5.37l-13.09,34.16h-3.83v6.36h16.82v-6.36Zm6.48-31.37h.13l6.48,16.42-13.19.06,6.58-16.48Z"/>
  <path class="cls-1" d="m94.52,42.12c-2.6,5.2-6.59,8.83-13.6,8.83-9.94,0-15.68-7.73-15.68-16.69s5.87-16.69,15.68-16.69c2.66,0,5.68.78,7.89,2.27,2.21,1.43,3.96,3.51,4.61,6.17h6.82v-15.2h-6.82v2.99c-3.77-3.57-11.07-4.03-12.56-4.03-11.23,0-24.06,7.73-24.06,24.22,0,14.03,10.61,24.74,24.12,24.74,10.2,0,18.67-5.39,21.39-16.62h-7.79Z"/>
  <path class="cls-1" d="m192.16,51.08c1.43-1.1,7.27-7.47,7.27-16.24,0-11.23-7.08-17.73-8.83-18.9-2.14-1.43-6.1-5.13-17.4-5.13h-18.42v6.36h5v34.16h-5v6.36h17.97c10.52,0,14.48-2.79,19.42-6.62Zm-23.94-33.9h5.83c12.79,0,16.95,9.42,16.95,16.95,0,8.44-4.55,17.34-16.3,17.34h-6.48V17.18Z"/>
  <polygon class="cls-1" points="278.1 38.86 277.97 38.86 266.85 10.82 250 10.82 250 17.18 254.67 17.18 254.67 51.34 250 51.34 250 57.71 267.73 57.71 267.73 51.34 262.47 51.34 262.47 20.3 262.6 20.3 275.56 51.99 280.51 51.99 293.42 20.3 293.55 20.3 293.55 51.34 288.29 51.34 288.29 57.71 305.95 57.71 305.95 51.34 301.34 51.34 301.34 17.18 305.95 17.18 305.95 10.82 289.82 10.82 278.1 38.86"/>
  <polygon class="cls-1" points="242.99 44.49 235.52 44.49 235.52 51.34 216.02 51.34 216.02 37.99 225.26 37.99 225.26 43.32 231.5 43.32 231.5 25.26 225.26 25.26 225.26 30.59 216.02 30.59 216.02 17.18 235.52 17.18 235.52 24.03 242.99 24.03 242.99 10.82 202.57 10.82 202.57 17.18 207.57 17.18 207.57 51.34 202.57 51.34 202.57 57.71 242.99 57.71 242.99 44.49"/>
  <polygon class="cls-1" points="337.82 10.82 337.82 17.18 342.32 17.18 332.77 33.04 332.64 33.04 322.59 17.18 327.39 17.18 327.39 10.82 309.09 10.82 309.09 17.18 313.63 17.18 327.64 39.16 327.64 51.34 322.25 51.34 322.25 57.71 341.34 57.71 341.34 51.34 336.08 51.34 336.08 39.54 350.29 17.18 354.63 17.18 354.63 10.82 337.82 10.82"/>
  <path class="cls-1" d="m69.81,92.25c-1.42,0-2.8.65-3.71,1.68v-8.16h-4.77v2.46h1.79v13.78h-1.79v2.46h4.38v-1.66h.05c.91,1.24,2.33,1.92,4.04,1.92,3.03,0,5.8-2.49,5.8-6.25s-2.77-6.24-5.8-6.24Zm-.62,10c-2.28,0-3.42-1.81-3.42-3.84,0-1.92,1.14-3.68,3.42-3.68s3.45,1.76,3.45,3.68c0,2.02-1.14,3.84-3.45,3.84Z"/>
  <polygon class="cls-1" points="84.71 94.97 86.34 94.97 83.52 100.87 83.46 100.87 80.92 94.97 82.53 94.97 82.53 92.5 76.83 92.5 76.83 94.97 77.89 94.97 81.94 104.24 80.46 107.4 78.39 107.4 78.39 109.86 85.41 109.86 85.41 107.4 83.44 107.4 89.24 94.97 90.56 94.97 90.56 92.5 84.71 92.5 84.71 94.97"/>
  <path class="cls-1" d="m108.1,101.78c-3.96,0-6.14-3.08-6.14-6.66s2.23-6.66,6.14-6.66c1.06,0,2.15.31,3.03.91.88.57,1.58,1.4,1.84,2.46h2.72v-6.06h-2.72v1.19c-1.5-1.43-4.3-1.61-4.9-1.61-4.48,0-9.48,3.08-9.48,9.66,0,5.6,4.12,9.87,9.51,9.87,4.07,0,7.33-2.15,8.42-6.63h-3.11c-1.04,2.07-2.51,3.52-5.31,3.52Z"/>
  <path class="cls-1" d="m131.31,95.74c0-2.69-2.59-3.5-3.71-3.5-.88,0-1.63.18-2.33.49-.7.31-1.35.78-1.94,1.32v-8.29h-4.72v2.46h1.74v13.78h-1.74v2.46h6.61v-2.46h-1.89v-5.6c.78-.91,1.89-1.68,3.14-1.68,1.09,0,1.87.7,1.87,1.76v5.52h-1.71v2.46h6.43v-2.46h-1.74v-6.27Z"/>
  <path class="cls-1" d="m141.49,92.25c-1.37,0-2.18,1.01-2.2,1.89h-.16v-1.63h-4.43v2.46h1.45v7.05h-1.45v2.46h6.11v-2.46h-1.68v-7.2h.16c.16.96,1.06,1.71,2.2,1.71s2.23-.83,2.23-2.12c0-1.4-1.14-2.15-2.23-2.15Z"/>
  <rect class="cls-1" x="145.63" y="87.19" width="4.12" height="3.21"/>
  <polygon class="cls-1" points="149.75 92.5 144.96 92.5 144.96 94.97 146.77 94.97 146.77 102.01 145.01 102.01 145.01 104.48 151.57 104.48 151.57 102.01 149.75 102.01 149.75 92.5"/>
  <path class="cls-1" d="m156.31,95.74c0-1.11,1.09-1.32,1.94-1.32.65,0,1.24.16,1.68.47.47.31.78.8.91,1.48h2.51v-3.86h-2.38v.65c-.83-.62-1.84-.91-2.88-.91-2.46,0-4.48,1.24-4.48,3.91,0,5.03,7.85,2.64,7.85,5.21,0,1.09-1.35,1.19-2.18,1.19-.75,0-1.37-.18-1.89-.54-.49-.36-.85-.91-1.11-1.61h-2.56v4.07h2.59v-.78c.8.78,2.2,1.04,3.29,1.04,2.46,0,4.59-.98,4.56-3.78-.05-5.34-7.85-2.98-7.85-5.21Z"/>
  <path class="cls-1" d="m195.01,102.25c-2.18,0-3.32-1.74-3.32-3.84,0-1.97,1.14-3.68,3.26-3.68.65,0,1.19.21,1.68.57.47.36.86.85,1.19,1.35h2.05v-4.15h-2.38v.98c-.78-.83-1.92-1.24-3.06-1.24-3.71,0-5.73,3.08-5.73,6.17,0,3.84,2.64,6.32,6.04,6.32,2.44,0,3.91-1.09,5.52-2.75l-1.84-1.71c-.78.88-2.1,1.97-3.42,1.97Z"/>
  <path class="cls-1" d="m214.57,95.74c0-2.69-2.59-3.5-3.71-3.5-.88,0-1.63.18-2.33.49-.7.31-1.35.78-1.94,1.32v-8.29h-4.72v2.46h1.74v13.78h-1.74v2.46h6.61v-2.46h-1.89v-5.6c.78-.91,1.89-1.68,3.13-1.68,1.09,0,1.87.7,1.87,1.76v5.52h-1.71v2.46h6.43v-2.46h-1.74v-6.27Z"/>
  <path class="cls-1" d="m223.81,92.25c-3.68,0-6.45,2.49-6.45,6.24s2.77,6.25,6.45,6.25c4.12,0,5.75-2.59,5.99-3.78h-2.98c-.13.16-.88,1.3-2.75,1.3s-3.45-.88-3.63-2.9h9.69c0-4.09-2.2-7.1-6.32-7.1Zm-3.37,5.1c.34-1.61,1.79-2.62,3.37-2.62,1.81.13,3.34,1.27,3.34,2.62h-6.71Z"/>
  <polygon class="cls-1" points="238.63 94.97 240.11 94.97 237.93 100.46 237.88 100.46 235.81 94.97 237.08 94.97 237.08 92.5 231.22 92.5 231.22 94.97 232.62 94.97 236.64 104.63 238.71 104.63 243.06 94.97 244.44 94.97 244.44 92.5 238.63 92.5 238.63 94.97"/>
  <path class="cls-1" d="m255.08,94.29h-.08c-.98-1.3-2.41-2.05-3.91-2.05-3.16,0-5.93,2.49-5.93,6.24s2.77,6.25,5.93,6.25c1.58,0,3.06-.83,3.94-2h.05v1.74h4.33v-2.46h-1.89v-7.05h1.89v-2.46h-4.33v1.79Zm-3.52,7.95c-2.28,0-3.42-1.81-3.42-3.84,0-1.92,1.14-3.68,3.42-3.68s3.26,1.76,3.26,3.68c0,2.02-.96,3.84-3.26,3.84Z"/>
  <path class="cls-1" d="m268.24,92.25c-1.37,0-2.18,1.01-2.2,1.89h-.16v-1.63h-4.43v2.46h1.45v7.05h-1.45v2.46h6.12v-2.46h-1.68v-7.2h.16c.16.96,1.06,1.71,2.2,1.71s2.23-.83,2.23-2.12c0-1.4-1.14-2.15-2.23-2.15Z"/>
  <path class="cls-1" d="m278.58,92.25c-1.37,0-2.18,1.01-2.2,1.89h-.16v-1.63h-4.43v2.46h1.45v7.05h-1.45v2.46h6.12v-2.46h-1.68v-7.2h.16c.16.96,1.06,1.71,2.2,1.71s2.23-.83,2.23-2.12c0-1.4-1.14-2.15-2.23-2.15Z"/>
  <polygon class="cls-1" points="286.84 92.5 282.05 92.5 282.05 94.97 283.86 94.97 283.86 102.01 282.1 102.01 282.1 104.48 288.65 104.48 288.65 102.01 286.84 102.01 286.84 92.5"/>
  <rect class="cls-1" x="282.72" y="87.19" width="4.12" height="3.21"/>
  <path class="cls-1" d="m299.56,94.29h-.08c-.98-1.3-2.41-2.05-3.91-2.05-3.16,0-5.93,2.49-5.93,6.24s2.77,6.25,5.93,6.25c1.58,0,3.06-.83,3.94-2h.05v1.74h4.33v-2.46h-1.89v-7.05h1.89v-2.46h-4.33v1.79Zm-3.52,7.95c-2.28,0-3.42-1.81-3.42-3.84,0-1.92,1.14-3.68,3.42-3.68s3.26,1.76,3.26,3.68c0,2.02-.96,3.84-3.26,3.84Z"/>
  <polygon class="cls-1" points="171.33 88.31 173.33 88.31 173.33 101.94 171.33 101.94 171.33 104.48 187.11 104.48 187.11 99.2 184.13 99.2 184.13 101.94 176.7 101.94 176.7 96.61 180.04 96.61 180.04 98.73 182.52 98.73 182.52 91.53 180.04 91.53 180.04 93.66 176.7 93.66 176.7 88.31 184.13 88.31 184.13 91.04 187.11 91.04 187.11 85.77 171.33 85.77 171.33 88.31"/>
</svg>