<?xml version="1.0" encoding="UTF-8" standalone="no"?>
<!-- Created with Inkscape (http://www.inkscape.org/) -->

<svg
   width="60.200001"
   height="8.6000004"
   viewBox="0 0 15.927916 2.2754168"
   version="1.1"
   id="svg1"
   xml:space="preserve"
   inkscape:export-filename="academy.svg"
   inkscape:export-xdpi="96"
   inkscape:export-ydpi="96"
   xmlns:inkscape="http://www.inkscape.org/namespaces/inkscape"
   xmlns:sodipodi="http://sodipodi.sourceforge.net/DTD/sodipodi-0.dtd"
   xmlns="http://www.w3.org/2000/svg"
   xmlns:svg="http://www.w3.org/2000/svg"><sodipodi:namedview
     id="namedview1"
     pagecolor="#ffffff"
     bordercolor="#cccccc"
     borderopacity="1"
     inkscape:showpageshadow="0"
     inkscape:pageopacity="1"
     inkscape:pagecheckerboard="0"
     inkscape:deskcolor="#d1d1d1"
     inkscape:document-units="px"
     inkscape:lockguides="true"
     showguides="true"><sodipodi:guide
       position="21.611671,5.3972803"
       orientation="0,-1"
       id="guide2"
       inkscape:locked="true" /></sodipodi:namedview><defs
     id="defs1"><style
       id="style1">&#10;      .cls-1 {&#10;        fill: #694a26;&#10;        stroke-width: 0px;&#10;      }&#10;    </style><style
       id="style1-0">&#10;      .cls-1 {&#10;        fill: #694a26;&#10;        stroke-width: 0px;&#10;      }&#10;    </style><style
       id="style1-1">&#10;      .cls-1 {&#10;        fill: #694a26;&#10;        stroke-width: 0px;&#10;      }&#10;    </style><style
       id="style1-7">&#10;      .cls-1 {&#10;        fill: #694a26;&#10;        stroke-width: 0px;&#10;      }&#10;    </style><style
       id="style1-3">&#10;      .cls-1 {&#10;        fill: #694a26;&#10;        stroke-width: 0px;&#10;      }&#10;    </style></defs><g
     inkscape:label="Layer 1"
     inkscape:groupmode="layer"
     id="layer1"><g
       id="g1"
       transform="matrix(0.05537308,0,0,0.05537308,-0.67867169,3.4297886)"><g
         id="g2"
         transform="matrix(0.83333328,0,0,0.83333328,11.321013,-62.846395)"><path
           class="cls-1"
           d="m 32.6,9.18 h 5.31 V 2.81 H 13.68 v 6.36 h 5.37 L 5.97,43.34 H 2.14 v 6.36 h 16.82 v -6.36 h -5.07 l 2.97,-8.52 16.98,-0.06 2.95,8.58 H 31.66 V 49.7 H 48.93 V 43.34 H 45.36 Z M 18.86,28.45 25.44,11.97 h 0.13 l 6.48,16.42 z"
           id="path1-5" /><path
           class="cls-1"
           d="m 111.45,43.34 h -5.07 l 2.97,-8.52 16.98,-0.06 2.95,8.58 h -5.13 v 6.36 h 17.27 v -6.36 h -3.57 L 125.09,9.18 h 5.31 V 2.81 h -24.22 v 6.36 h 5.37 L 98.46,43.33 h -3.83 v 6.36 h 16.82 v -6.36 z m 6.48,-31.37 h 0.13 l 6.48,16.42 -13.19,0.06 z"
           id="path2-7" /><path
           class="cls-1"
           d="m 86.06,34.11 c -2.6,5.2 -6.59,8.83 -13.6,8.83 -9.94,0 -15.68,-7.73 -15.68,-16.69 0,-8.96 5.87,-16.69 15.68,-16.69 2.66,0 5.68,0.78 7.89,2.27 2.21,1.43 3.96,3.51 4.61,6.17 h 6.82 V 2.81 H 84.96 V 5.8 C 81.19,2.23 73.89,1.77 72.4,1.77 61.17,1.77 48.34,9.5 48.34,25.99 c 0,14.03 10.61,24.74 24.12,24.74 10.2,0 18.67,-5.39 21.39,-16.62 z"
           id="path3-2" /><path
           class="cls-1"
           d="m 183.7,43.08 c 1.43,-1.1 7.27,-7.47 7.27,-16.24 0,-11.23 -7.08,-17.73 -8.83,-18.9 -2.14,-1.43 -6.1,-5.13 -17.4,-5.13 h -18.42 v 6.36 h 5 v 34.16 h -5 v 6.36 h 17.97 c 10.52,0 14.48,-2.79 19.42,-6.62 z M 159.76,9.18 h 5.83 c 12.79,0 16.95,9.42 16.95,16.95 0,8.44 -4.55,17.34 -16.3,17.34 h -6.48 z"
           id="path4-9" /><polygon
           class="cls-1"
           points="269.51,30.86 258.39,2.81 241.54,2.81 241.54,9.18 246.21,9.18 246.21,43.34 241.54,43.34 241.54,49.7 259.26,49.7 259.26,43.34 254,43.34 254,12.29 254.13,12.29 267.1,43.99 272.05,43.99 284.96,12.29 285.09,12.29 285.09,43.34 279.83,43.34 279.83,49.7 297.49,49.7 297.49,43.34 292.88,43.34 292.88,9.18 297.49,9.18 297.49,2.81 281.36,2.81 269.64,30.86 "
           id="polygon4-7" /><polygon
           class="cls-1"
           points="216.8,29.98 216.8,35.31 223.04,35.31 223.04,17.26 216.8,17.26 216.8,22.58 207.56,22.58 207.56,9.18 227.06,9.18 227.06,16.03 234.53,16.03 234.53,2.81 194.11,2.81 194.11,9.18 199.11,9.18 199.11,43.34 194.11,43.34 194.11,49.7 234.53,49.7 234.53,36.48 227.06,36.48 227.06,43.34 207.56,43.34 207.56,29.98 "
           id="polygon5-5" /><polygon
           class="cls-1"
           points="318.93,2.81 300.63,2.81 300.63,9.18 305.17,9.18 319.18,31.15 319.18,43.34 313.79,43.34 313.79,49.7 332.88,49.7 332.88,43.34 327.62,43.34 327.62,31.54 341.83,9.18 346.17,9.18 346.17,2.81 329.36,2.81 329.36,9.18 333.86,9.18 324.31,25.04 324.18,25.04 314.13,9.18 318.93,9.18 "
           id="polygon6-6" /></g><g
         id="g3"
         transform="matrix(0.78863399,0,0,0.78863399,-35.541156,76.57261)"><path
           class="cls-1"
           d="M 17.85,2.57 C 15.95,1.32 13.99,0.7 11.99,0.7 10.1,0.7 8.39,1.33 6.86,2.59 5.33,3.85 4.12,5.62 3.24,7.89 c -0.88,2.28 -1.32,4.86 -1.32,7.74 0,1.17 0.17,2.24 0.51,3.23 0.34,0.98 0.8,1.76 1.39,2.32 0.59,0.56 1.24,0.84 1.95,0.84 1.07,0 1.94,-0.42 2.6,-1.27 C 9.03,19.91 9.36,18.78 9.36,17.39 9.36,16.57 9.27,15.87 9.08,15.3 8.89,14.73 8.67,14.26 8.42,13.91 8.16,13.56 7.82,13.16 7.4,12.73 6.91,12.23 6.55,11.78 6.32,11.39 6.09,11 5.97,10.5 5.97,9.88 5.97,9.08 6.18,8.16 6.6,7.12 7.02,6.08 7.64,5.19 8.47,4.44 9.3,3.7 10.31,3.33 11.5,3.33 c 2.04,0 3.55,0.98 4.54,2.95 0.98,1.97 1.48,4.72 1.48,8.24 0,2.88 -0.43,5.52 -1.29,7.9 -0.86,2.38 -2.4,4.76 -4.63,7.14 -2.24,2.43 -4.03,4.64 -5.35,6.63 -1.32,1.99 -2.32,4.07 -2.98,6.25 -0.66,2.18 -1,4.64 -1,7.38 v 1.55 H 23.41 V 35.61 H 21.6 c -0.07,2.34 -0.27,4.14 -0.61,5.43 -0.34,1.28 -0.88,2.2 -1.63,2.75 -0.75,0.55 -1.79,0.82 -3.14,0.82 h -5.97 c -0.9,0 -1.59,-0.25 -2.08,-0.76 -0.49,-0.5 -0.73,-1.19 -0.73,-2.06 0,-1.17 0.22,-2.31 0.65,-3.42 0.43,-1.11 1.1,-2.12 2,-3.04 4.49,-4.58 7.7,-8.03 9.64,-10.35 1.94,-2.32 3.18,-4.22 3.74,-5.7 0.55,-1.47 0.83,-3.25 0.83,-5.34 0,-2.22 -0.6,-4.35 -1.8,-6.4 C 21.3,5.49 19.75,3.84 17.85,2.6 Z"
           id="path1-0"
           style="fill:#694a26;stroke-width:0px" /><path
           class="cls-1"
           d="M 47.77,35.33 C 47.58,34.98 47.49,34.45 47.49,33.77 V 1.56 h -3.87 l -15.5,34.61 v 2.3 h 12.36 c 0.49,0 0.83,0.19 1.02,0.55 0.19,0.37 0.28,0.94 0.28,1.72 v 4.57 c 0,1.03 -0.18,1.85 -0.55,2.45 -0.37,0.61 -0.88,0.91 -1.54,0.91 h -2.45 v 2.68 h 14.79 v -2.68 h -2.45 c -0.66,0 -1.18,-0.3 -1.54,-0.91 -0.37,-0.61 -0.55,-1.42 -0.55,-2.45 v -4.84 c 0,-0.8 0.08,-1.33 0.24,-1.59 0.16,-0.26 0.45,-0.4 0.85,-0.4 h 3.44 v -2.61 h -3.24 c -0.49,0 -0.83,-0.18 -1.02,-0.53 z m -5.99,-1.56 c 0,0.8 -0.11,1.35 -0.32,1.65 -0.21,0.3 -0.56,0.45 -1.03,0.45 h -5.69 c -0.73,0 -1.28,-0.25 -1.64,-0.76 -0.36,-0.5 -0.55,-1.24 -0.55,-2.2 0,-0.5 0.09,-1.08 0.27,-1.72 0.18,-0.64 0.47,-1.42 0.88,-2.33 l 5.12,-11.81 c 0.41,-0.96 0.75,-1.62 1.03,-1.99 0.28,-0.37 0.57,-0.55 0.88,-0.55 0.7,0 1.04,0.77 1.04,2.3 v 16.96 z"
           id="path2-4"
           style="fill:#694a26;stroke-width:0px" /><path
           class="cls-1"
           d="M 73.3,2.57 C 71.4,1.32 69.44,0.7 67.44,0.7 c -1.89,0 -3.6,0.63 -5.13,1.89 -1.53,1.26 -2.74,3.03 -3.62,5.3 -0.88,2.28 -1.32,4.86 -1.32,7.74 0,1.17 0.17,2.24 0.51,3.23 0.34,0.98 0.8,1.76 1.39,2.32 0.59,0.56 1.24,0.84 1.95,0.84 1.07,0 1.94,-0.42 2.6,-1.27 0.66,-0.84 1,-1.97 1,-3.36 0,-0.82 -0.09,-1.52 -0.28,-2.09 -0.19,-0.57 -0.41,-1.04 -0.66,-1.39 -0.26,-0.35 -0.6,-0.75 -1.02,-1.18 -0.49,-0.5 -0.85,-0.95 -1.08,-1.34 C 61.55,11 61.43,10.5 61.43,9.88 c 0,-0.8 0.21,-1.72 0.63,-2.76 0.42,-1.04 1.04,-1.93 1.87,-2.68 0.83,-0.74 1.84,-1.11 3.03,-1.11 2.04,0 3.55,0.98 4.54,2.95 0.98,1.97 1.48,4.72 1.48,8.24 0,2.88 -0.43,5.52 -1.29,7.9 -0.86,2.38 -2.4,4.76 -4.63,7.14 -2.24,2.43 -4.03,4.64 -5.35,6.63 -1.32,1.99 -2.32,4.07 -2.98,6.25 -0.66,2.18 -1,4.64 -1,7.38 v 1.55 H 78.87 V 35.61 h -1.81 c -0.07,2.34 -0.27,4.14 -0.61,5.43 -0.34,1.28 -0.88,2.2 -1.63,2.75 -0.75,0.55 -1.79,0.82 -3.14,0.82 h -5.97 c -0.9,0 -1.59,-0.25 -2.08,-0.76 -0.49,-0.5 -0.73,-1.19 -0.73,-2.06 0,-1.17 0.22,-2.31 0.65,-3.42 0.43,-1.11 1.1,-2.12 2,-3.04 4.49,-4.58 7.7,-8.03 9.64,-10.35 1.94,-2.32 3.18,-4.22 3.74,-5.7 0.55,-1.47 0.83,-3.25 0.83,-5.34 0,-2.22 -0.6,-4.35 -1.8,-6.4 -1.2,-2.05 -2.75,-3.7 -4.65,-4.94 z"
           id="path3-8"
           style="fill:#694a26;stroke-width:0px" /><path
           class="cls-1"
           d="m 120.79,31.88 c -0.39,1.4 -0.79,2.38 -1.18,2.94 -0.4,0.56 -0.88,0.84 -1.44,0.84 -0.41,0 -0.75,-0.12 -1.03,-0.34 -0.28,-0.23 -0.54,-0.63 -0.79,-1.2 -0.25,-0.57 -0.52,-1.41 -0.83,-2.51 L 107.31,2.12 H 94.74 V 4.8 h 2.4 c 1.19,0 2.04,0.33 2.54,1 0.5,0.67 0.75,1.79 0.75,3.37 v 35.16 c 0,1.58 -0.25,2.7 -0.75,3.36 -0.5,0.67 -1.35,1 -2.54,1 h -2.4 v 2.68 H 108.4 V 48.69 H 106 c -1.19,0 -2.04,-0.33 -2.54,-1 -0.5,-0.66 -0.75,-1.78 -0.75,-3.36 V 17.48 c 0,-0.87 0.09,-1.49 0.28,-1.85 0.19,-0.36 0.47,-0.55 0.87,-0.55 0.25,0 0.48,0.15 0.68,0.45 0.2,0.3 0.4,0.84 0.62,1.61 l 9.56,34.23 h 2.78 l 9.92,-34.23 c 0.22,-0.78 0.43,-1.31 0.64,-1.61 0.2,-0.3 0.42,-0.45 0.66,-0.45 0.39,0 0.68,0.18 0.87,0.55 0.19,0.37 0.28,0.98 0.28,1.85 v 26.85 c 0,1.58 -0.25,2.7 -0.75,3.36 -0.5,0.67 -1.35,1 -2.54,1 h -2.4 v 2.68 h 17.33 v -2.68 h -2.4 c -1.21,0 -2.06,-0.33 -2.55,-1 -0.49,-0.66 -0.74,-1.78 -0.74,-3.36 V 9.15 c 0,-1.58 0.25,-2.7 0.74,-3.37 0.49,-0.66 1.34,-1 2.55,-1 h 2.4 V 2.1 H 129.3 l -8.52,29.77 z"
           id="path4-5"
           style="fill:#694a26;stroke-width:0px" /><path
           class="cls-1"
           d="m 167.45,4.79 h 2.4 c 1.21,0 2.06,0.33 2.55,0.99 0.49,0.67 0.74,1.79 0.74,3.36 v 27.23 c 0,2.68 -0.35,4.98 -1.05,6.9 -0.7,1.92 -1.7,3.39 -3.02,4.39 -1.32,1.01 -2.9,1.51 -4.75,1.51 -2.7,0 -4.71,-0.95 -6.02,-2.83 -1.31,-1.89 -1.96,-4.79 -1.96,-8.7 V 9.15 c 0,-1.58 0.25,-2.7 0.75,-3.36 0.5,-0.66 1.35,-0.99 2.54,-0.99 h 2.4 V 2.12 H 144.69 V 4.8 h 2.4 c 1.21,0 2.06,0.33 2.55,0.99 0.49,0.67 0.74,1.79 0.74,3.36 v 27.43 c 0,5.17 1.14,9.07 3.42,11.69 2.28,2.62 5.65,3.93 10.12,3.93 2.74,0 4.97,-0.77 6.69,-2.3 1.73,-1.53 2.96,-3.47 3.71,-5.8 0.75,-2.33 1.12,-4.77 1.12,-7.31 V 9.15 c 0,-1.58 0.25,-2.7 0.75,-3.36 0.5,-0.66 1.35,-0.99 2.54,-0.99 h 2.42 V 2.12 H 167.46 V 4.8 Z"
           id="path5"
           style="fill:#694a26;stroke-width:0px" /><path
           class="cls-1"
           d="m 211.39,41.18 c -0.89,2.68 -2.07,4.6 -3.53,5.75 -1.46,1.16 -3.34,1.73 -5.63,1.73 h -1.04 c -1.28,0 -2.29,-0.17 -3.05,-0.52 -0.76,-0.34 -1.31,-0.91 -1.66,-1.72 -0.35,-0.8 -0.52,-1.91 -0.52,-3.33 V 9.15 c 0,-1.58 0.25,-2.7 0.75,-3.37 0.5,-0.66 1.35,-1 2.54,-1 h 2.42 V 2.1 h -17.34 v 2.68 h 2.4 c 1.19,0 2.04,0.33 2.54,1 0.5,0.67 0.75,1.79 0.75,3.37 v 35.16 c 0,1.58 -0.25,2.7 -0.75,3.36 -0.5,0.67 -1.35,1 -2.54,1 h -2.4 v 2.68 h 30.75 V 30.13 h -1.61 c -0.49,4.69 -1.19,8.38 -2.08,11.06 z"
           id="path6"
           style="fill:#694a26;stroke-width:0px" /><path
           class="cls-1"
           d="m 243.37,27.07 c -0.49,-0.27 -0.74,-0.57 -0.74,-0.89 0,-0.34 0.21,-0.65 0.64,-0.93 2.09,-1.42 3.68,-2.99 4.78,-4.7 1.1,-1.72 1.64,-3.71 1.64,-5.97 0,-2.01 -0.56,-3.98 -1.7,-5.91 -1.13,-1.92 -2.68,-3.5 -4.64,-4.72 -1.96,-1.22 -4.13,-1.84 -6.51,-1.84 h -17.75 v 2.68 h 2.4 c 1.19,0 2.04,0.33 2.54,1 0.5,0.67 0.75,1.79 0.75,3.37 v 35.16 c 0,1.58 -0.25,2.7 -0.75,3.36 -0.5,0.67 -1.35,1 -2.54,1 h -2.4 v 2.68 h 18.94 c 2.21,0 4.3,-0.61 6.27,-1.84 1.97,-1.23 3.55,-2.83 4.74,-4.81 1.19,-1.98 1.78,-4.04 1.78,-6.16 0,-2.45 -0.68,-4.66 -2.04,-6.64 -1.36,-1.98 -3.17,-3.59 -5.43,-4.82 z M 230.73,9.15 c 0,-1.58 0.24,-2.7 0.73,-3.37 0.48,-0.66 1.32,-1 2.51,-1 h 2.93 c 1.82,0 3.23,0.75 4.23,2.25 1,1.5 1.5,3.61 1.5,6.34 v 3.16 c 0,2.75 -0.49,4.85 -1.48,6.32 -0.99,1.47 -2.4,2.2 -4.26,2.2 h -3.34 c -0.99,0 -1.7,-0.3 -2.16,-0.89 -0.45,-0.59 -0.67,-1.53 -0.67,-2.81 V 9.16 Z m 12.75,31.14 c 0,2.68 -0.53,4.74 -1.59,6.2 -1.06,1.45 -2.53,2.18 -4.4,2.18 h -3.52 c -1.19,0 -2.03,-0.33 -2.51,-1 -0.48,-0.66 -0.73,-1.78 -0.73,-3.36 V 31.43 c 0,-1.28 0.22,-2.22 0.67,-2.82 0.45,-0.59 1.17,-0.89 2.16,-0.89 h 3.92 c 1.19,0 2.24,0.36 3.15,1.06 0.91,0.71 1.61,1.73 2.1,3.06 0.49,1.33 0.74,2.91 0.74,4.74 v 3.71 z"
           id="path7"
           style="fill:#694a26;stroke-width:0px" /><path
           class="cls-1"
           d="m 255.03,4.79 h 2.4 c 1.19,0 2.04,0.33 2.54,1 0.5,0.67 0.75,1.79 0.75,3.37 v 35.16 c 0,1.58 -0.25,2.7 -0.75,3.36 -0.5,0.67 -1.35,1 -2.54,1 h -2.4 v 2.68 h 31.33 V 31.62 h -1.73 c -0.39,4.58 -0.92,8.05 -1.59,10.4 -0.67,2.36 -1.73,4.06 -3.17,5.1 -1.45,1.04 -3.56,1.56 -6.35,1.56 h -3.57 c -1.19,0 -2.04,-0.33 -2.54,-1 -0.5,-0.66 -0.75,-1.78 -0.75,-3.36 v -8.07 c 0,-2.24 0.14,-4.04 0.43,-5.39 0.29,-1.35 0.75,-2.33 1.38,-2.94 0.63,-0.61 1.47,-0.91 2.52,-0.91 1.73,0 3.02,0.81 3.85,2.42 0.83,1.62 1.31,4.25 1.43,7.91 h 1.78 V 14.78 h -1.78 c -0.14,3.41 -0.62,5.88 -1.44,7.42 -0.82,1.53 -2.1,2.3 -3.84,2.3 -1.05,0 -1.9,-0.29 -2.52,-0.87 -0.63,-0.59 -1.09,-1.51 -1.38,-2.78 -0.29,-1.27 -0.43,-2.96 -0.43,-5.06 V 9.16 c 0,-1.58 0.24,-2.7 0.73,-3.37 0.48,-0.66 1.32,-1 2.51,-1 h 4.72 c 2.18,0 3.92,0.46 5.23,1.39 1.31,0.92 2.33,2.45 3.07,4.58 0.74,2.13 1.31,5.13 1.72,9 h 1.73 V 2.11 h -31.33 v 2.68 z"
           id="path8"
           style="fill:#694a26;stroke-width:0px" /><path
           class="cls-1"
           d="m 326.34,43.69 c 0,1.08 -0.12,1.88 -0.36,2.42 -0.24,0.54 -0.59,0.81 -1.04,0.81 -0.53,0 -0.96,-0.25 -1.31,-0.76 -0.35,-0.5 -0.78,-1.48 -1.29,-2.92 l -3.03,-8.41 c -1.14,-3.18 -2.37,-5.41 -3.7,-6.7 -0.44,-0.41 -0.66,-0.8 -0.66,-1.17 0,-0.39 0.3,-0.72 0.92,-1 1.75,-0.76 3.28,-1.72 4.6,-2.9 1.32,-1.18 2.33,-2.49 3.05,-3.95 0.71,-1.45 1.07,-2.95 1.07,-4.48 0,-2.13 -0.54,-4.15 -1.61,-6.08 -1.07,-1.92 -2.61,-3.48 -4.61,-4.67 -2.01,-1.19 -4.35,-1.79 -7.04,-1.79 H 292.9 v 2.68 h 2.4 c 1.19,0 2.04,0.33 2.54,0.99 0.5,0.67 0.75,1.79 0.75,3.36 v 35.16 c 0,1.58 -0.25,2.7 -0.75,3.36 -0.5,0.67 -1.35,1 -2.54,1 h -2.4 v 2.68 h 17.34 v -2.68 h -2.42 c -1.19,0 -2.04,-0.33 -2.54,-1 -0.5,-0.66 -0.75,-1.79 -0.75,-3.36 v -12.5 c 0,-1.49 0.26,-2.58 0.78,-3.26 0.52,-0.69 1.34,-1.03 2.46,-1.03 h 2.73 c 1.48,0 2.56,0.53 3.25,1.58 0.69,1.05 1.1,2.77 1.24,5.15 l 0.36,7.31 c 0.19,3.66 0.83,6.35 1.92,8.07 1.1,1.72 2.74,2.58 4.93,2.58 1.94,0 3.43,-0.74 4.47,-2.23 1.04,-1.49 1.57,-3.49 1.57,-6.01 V 40.2 h -1.89 v 3.47 z M 311.47,24.84 h -3.72 c -1.12,0 -1.94,-0.34 -2.46,-1.03 -0.52,-0.69 -0.78,-1.77 -0.78,-3.26 V 9.15 c 0,-1.58 0.24,-2.7 0.73,-3.36 0.48,-0.66 1.32,-0.99 2.51,-0.99 h 3.72 c 1.79,0 3.2,0.71 4.23,2.15 1.04,1.43 1.56,3.39 1.56,5.89 v 3.64 c 0,5.59 -1.93,8.38 -5.79,8.38 z"
           id="path9"
           style="fill:#694a26;stroke-width:0px" /><path
           class="cls-1"
           d="m 364.99,43.69 c 0,1.08 -0.12,1.88 -0.36,2.42 -0.24,0.54 -0.59,0.81 -1.04,0.81 -0.53,0 -0.96,-0.25 -1.31,-0.76 -0.35,-0.5 -0.78,-1.48 -1.29,-2.92 l -3.03,-8.41 c -1.14,-3.18 -2.37,-5.41 -3.7,-6.7 -0.44,-0.41 -0.66,-0.8 -0.66,-1.17 0,-0.39 0.3,-0.72 0.92,-1 1.75,-0.76 3.28,-1.72 4.6,-2.9 1.32,-1.18 2.33,-2.49 3.05,-3.95 0.71,-1.45 1.07,-2.95 1.07,-4.48 0,-2.13 -0.54,-4.15 -1.61,-6.08 -1.07,-1.92 -2.61,-3.48 -4.61,-4.67 -2.01,-1.19 -4.35,-1.79 -7.04,-1.79 h -18.43 v 2.68 h 2.4 c 1.19,0 2.04,0.33 2.54,0.99 0.5,0.67 0.75,1.79 0.75,3.36 v 35.16 c 0,1.58 -0.25,2.7 -0.75,3.36 -0.5,0.67 -1.35,1 -2.54,1 h -2.4 v 2.68 h 17.34 v -2.68 h -2.42 c -1.19,0 -2.04,-0.33 -2.54,-1 -0.5,-0.66 -0.75,-1.79 -0.75,-3.36 v -12.5 c 0,-1.49 0.26,-2.58 0.78,-3.26 0.52,-0.69 1.34,-1.03 2.46,-1.03 h 2.73 c 1.48,0 2.56,0.53 3.25,1.58 0.69,1.05 1.1,2.77 1.24,5.15 l 0.36,7.31 c 0.19,3.66 0.83,6.35 1.92,8.07 1.1,1.72 2.74,2.58 4.93,2.58 1.94,0 3.43,-0.74 4.47,-2.23 1.04,-1.49 1.57,-3.49 1.57,-6.01 V 40.2 H 365 v 3.47 z M 350.12,24.84 h -3.72 c -1.12,0 -1.94,-0.34 -2.46,-1.03 -0.52,-0.69 -0.78,-1.77 -0.78,-3.26 V 9.15 c 0,-1.58 0.24,-2.7 0.73,-3.36 0.48,-0.66 1.32,-0.99 2.51,-0.99 h 3.72 c 1.79,0 3.2,0.71 4.23,2.15 1.04,1.43 1.56,3.39 1.56,5.89 v 3.64 c 0,5.59 -1.93,8.38 -5.79,8.38 z"
           id="path10"
           style="fill:#694a26;stroke-width:0px" /><path
           class="cls-1"
           d="m 389.18,2.11 v 2.68 h 1.15 c 0.92,0 1.64,0.3 2.18,0.91 0.53,0.61 0.8,1.44 0.8,2.49 0,0.62 -0.08,1.25 -0.23,1.89 -0.15,0.64 -0.46,1.56 -0.92,2.75 l -3.24,8.34 c -0.31,0.85 -0.67,1.48 -1.1,1.91 -0.43,0.42 -0.87,0.63 -1.33,0.63 -0.46,0 -0.87,-0.21 -1.29,-0.63 -0.42,-0.42 -0.77,-1.03 -1.06,-1.84 L 379.76,9.22 c -0.27,-0.73 -0.41,-1.45 -0.41,-2.16 0,-0.71 0.18,-1.26 0.55,-1.67 0.36,-0.4 0.83,-0.6 1.39,-0.6 h 2.24 V 2.11 h -17.18 v 2.68 h 1.1 c 1.34,0 2.45,0.39 3.33,1.18 0.88,0.79 1.66,2.11 2.36,3.97 l 8.21,21.94 v 12.43 c 0,1.58 -0.25,2.7 -0.75,3.36 -0.5,0.67 -1.35,1 -2.54,1 h -2.42 v 2.68 h 17.57 v -2.68 h -2.42 c -1.19,0 -2.04,-0.33 -2.54,-1 -0.5,-0.66 -0.75,-1.78 -0.75,-3.36 V 30.68 l 8.26,-20.6 c 0.7,-1.74 1.57,-3.06 2.63,-3.95 1.05,-0.89 2.25,-1.34 3.59,-1.34 h 0.71 V 2.11 Z"
           id="path11"
           style="fill:#694a26;stroke-width:0px" /></g></g></g></svg>
