<?xml version="1.0" encoding="UTF-8"?>
<svg id="Layer_1" data-name="Layer 1" xmlns="http://www.w3.org/2000/svg" viewBox="0 0 694.93 61.43">
  <defs>
    <style>
      .cls-1 {
        fill: #694a26;
        stroke-width: 0px;
      }
    </style>
  </defs>
  <path class="cls-1" d="m10.11,4.82c5.03,0,8.45-.16,12.22-.16,16.56-.09,22.67,4.09,22.67,12.22,0,6.69-5.1,11.79-11.54,13.63v.18c6.85,1.17,14.72,5.19,14.72,13.64,0,9.19-7.19,16.22-25.45,16.22-3.08,0-6.18-.16-11.97-.16H0v-1.26c6.69-.92,7.61-2.09,7.61-10.04V16.12c0-7.95-.92-9.12-7.61-10.04v-1.26h10.11Zm7.95,25.52h4.75c8.78,0,11.55-5.1,11.55-11.97,0-7.53-3.19-10.8-13.23-10.8h-3.07v22.76Zm0,24.44c0,2.51.85,2.97,4.02,2.97,10.96,0,14.65-4.52,14.65-13.05,0-7.62-3.19-11.86-13.81-11.86h-4.86v21.95Z"/>
  <path class="cls-1" d="m66.68.64c-.09,4.02-.25,9.03-.25,16.82v31.97c0,7.86.07,8.9,5.61,9.7v1.26h-20.76v-1.26c5.52-.83,5.61-1.84,5.61-9.7V14.03c0-6.45-.25-8.62-5.61-8.9v-1.26l15.41-3.23Z"/>
  <path class="cls-1" d="m98.43,53.46c-2.34,4-5.61,7.95-12.13,7.95-7.12,0-12.31-4.61-12.31-11.14s5.37-9.88,12.56-11.97c2.97-.92,6.61-1.75,11.55-2.76l.07-2.25c.16-7.28-3.1-9.8-8.2-9.8-4.9-.08-9.19,3.27-10.29,8.04l-3.43-.42c1.17-6.78,8.27-12.47,16.82-12.47,7.61,0,14.31,3.26,14.22,12.72l-.16,17.32c-.09,6.94.33,8.9,6.18,9.28v1.26l-13.81,1.75-1.08-7.52Zm-.58-1.35l.25-13.72c-6.61,1.01-9.96,2.18-11.73,3.17-2.2,1.2-3.52,3.54-3.43,6.04-.28,3.87,2.64,7.24,6.51,7.51.3.02.6.02.9,0,2.83.15,5.59-.96,7.53-3.03h-.04Z"/>
  <path class="cls-1" d="m113.7,40.56c0-12.89,8.9-21.84,19.28-21.84,7.1,0,14.83,3.77,15.81,12.72l-9.37.07c-.09-6.87-3.26-9.7-7.53-9.7-6.87,0-9.37,7.77-9.37,15.14,0,10.63,5.78,16.49,13.48,16.49,5.43.21,10.35-3.16,12.13-8.29l1.33.5c-2.09,8.04-7.95,15.73-17.32,15.73-12.16,0-18.43-9.8-18.43-20.83Z"/>
  <path class="cls-1" d="m166.76.64c-.09,4.02-.25,9.03-.25,16.82v31.97c0,7.86,0,8.9,5.61,9.7v1.26h-20.83v-1.26c5.52-.83,5.61-1.84,5.61-9.7V14.03c0-6.45-.25-8.62-5.61-8.9v-1.26l15.48-3.23Zm9.36,58.48c5.19-.67,4.7-1.84,2.11-5.35l-11.58-15.39,11.86-10.96c3.6-3.26,5.53-6.27-.99-6.78v-1.29h17.23v1.26l-1.48.07c-3.68.34-5.68,1.93-10.71,6.52l-7.52,6.97,15.48,20.49c1.75,2.59,4.58,4.25,7.7,4.52v1.17h-22.09v-1.25Z"/>
  <path class="cls-1" d="m225.33,20.72v11.39h-1.6c-1.75-7.53-5.93-10.47-10.8-10.47-4.45,0-7.41,2.34-7.41,5.35s2.02,5.03,5.86,6.29l4.94,1.66c8.11,2.68,11.71,6.79,11.71,13.35,0,8.27-8.36,13.14-16.56,13.14-4.53-.06-8.99-1.03-13.14-2.85v-14.31h1.75c1.6,9.7,5.69,13.89,11.71,13.89,4.52,0,8.45-2.11,8.54-6.54,0-2.97-2.09-5.35-6.52-6.94l-4.55-1.6c-6.44-2.18-10.87-5.77-10.87-12.47,0-7.86,8.27-11.86,15.81-11.86,3.8-.06,7.58.61,11.14,1.97Z"/>
  <path class="cls-1" d="m301.96,39.96c0,11.71-8.62,21.43-20.58,21.43s-20.83-8.9-20.83-21.5c0-11.39,8.62-21.17,20.58-21.17,11.47-.04,20.8,9.21,20.84,20.68,0,.19,0,.38,0,.57Zm-30.78-2.67c0,7.19,2.42,21.32,11.12,21.32,6.61,0,9.05-7.41,9.05-15.97,0-7.03-2.34-21.17-10.97-21.17-6.69,0-9.19,7.03-9.19,15.82Z"/>
  <path class="cls-1" d="m305.4,40.56c0-12.89,8.9-21.84,19.28-21.84,7.12,0,14.83,3.77,15.82,12.72l-9.37.07c-.09-6.87-3.26-9.7-7.53-9.7-6.87,0-9.37,7.77-9.37,15.14,0,10.63,5.77,16.49,13.46,16.49,5.43.22,10.36-3.15,12.13-8.29l1.35.5c-2.09,8.04-7.95,15.73-17.32,15.73-12.17,0-18.45-9.8-18.45-20.83Z"/>
  <path class="cls-1" d="m358.44.64c-.07,4.02-.25,9.03-.25,16.82v31.97c0,7.86.09,8.9,5.61,9.7v1.26h-20.76v-1.26c5.53-.83,5.61-1.84,5.61-9.7V14.03c0-6.45-.25-8.62-5.61-8.9v-1.26l15.41-3.23Zm9.37,58.48c5.19-.67,4.69-1.84,2.09-5.35l-11.54-15.39,11.79-10.96c3.6-3.26,5.53-6.27-1.01-6.78v-1.29h17.25v1.26l-1.48.07c-3.68.34-5.69,1.93-10.71,6.52l-7.47,6.97,15.48,20.49c1.75,2.59,4.58,4.25,7.7,4.52v1.17h-22.09v-1.25Z"/>
  <path class="cls-1" d="m547.83,5.41c-5.1.58-6.94,1.48-10.13,13.14l-11.54,41.74h-6.61l-12.22-37.31-10.38,37.31h-6.6l-15.29-47.27c-1.93-5.77-2.97-7.03-7.7-7.61v-1.26h23.52v1.26c-4.94.58-6.04,2-4.86,5.93l10.8,35.48,8.36-30.71-1.17-3.77c-1.84-5.77-2.67-6.36-7.41-6.94v-1.26h23.52v1.26c-4.94.58-6.27,1.33-5.03,5.26l10.88,36.15,7.19-26.28c3.86-14.15,2.51-14.56-3.26-15.14v-1.26h17.99l-.06,1.26Z"/>
  <path class="cls-1" d="m541.65,39.55c0-12.06,8.7-21.5,19.28-21.5,9.53,0,16.56,5.86,16.73,16.47h-27.39v1.85c0,10.38,5.93,16.4,14.4,16.4,6.18,0,10.62-3.6,12.8-9.3l1.33.5c-1.84,6.94-7.28,16.74-18.65,16.74-12.22,0-18.49-9.71-18.49-21.17Zm8.7-8.11h17.48c-.16-6.54-3.43-10.47-8.36-10.47-4.18,0-8.54,3.19-9.12,10.47Z"/>
  <path class="cls-1" d="m594.62,25.07c2.48-4.28,7.02-6.95,11.97-7.03,9.95,0,16.15,9.53,16.15,20.17,0,13.46-9.3,22.51-19.66,22.51-4.36.06-8.61-1.35-12.06-4.02l-5.1,3.59h-1.11c.16-4.34.25-8.62.25-12.96V13.42c0-6.45-.25-8.62-5.69-8.9v-1.26l15.48-3.26c-.09,4.02-.16,9.03-.16,16.82l-.06,8.26Zm0,28.53c1.97,2.69,5.12,4.25,8.45,4.18,6.85,0,9.79-6.27,9.79-15.55,0-9.96-4.6-17.79-11.64-17.79-2.51-.17-4.96.86-6.6,2.77v26.39Z"/>
  <path class="cls-1" d="m626.57,39.55c0-12.06,8.7-21.5,19.28-21.5,9.53,0,16.56,5.86,16.74,16.47h-27.37v1.85c0,10.38,5.93,16.4,14.38,16.4,6.2,0,10.63-3.6,12.8-9.3l1.35.5c-1.84,6.94-7.28,16.74-18.67,16.74-12.22,0-18.51-9.71-18.51-21.17Zm8.7-8.11h17.48c-.16-6.54-3.43-10.47-8.36-10.47-4.18,0-8.53,3.19-9.18,10.47h.06Z"/>
  <path class="cls-1" d="m681.05,27.08c2.97-5.01,7.61-9.7,13.88-8.9v10.8h-.67c-2.12-1.3-4.54-2.02-7.03-2.09-2.23-.14-4.43.61-6.11,2.09v19.84c0,7.86.18,8.9,6.11,9.7v1.26h-21.34v-1.26c5.53-.83,5.61-1.84,5.61-9.7v-17.3c0-6.44-.24-8.62-5.61-8.9v-1.26l14.83-3.34.33,9.06Z"/>
  <path class="cls-1" d="m442.79,13.14c0,8.19-7.41,12.93-18.74,14.83l.99.99c4.66-.77,7.95-.24,13.61,6.04l5.93,6.58c1.88-5.45,2.45-11.26,1.69-16.98h6.88c-.34,6.89-2.5,13.58-6.26,19.37l13.76,14.99c.39.39.99,1.68-.46,1.68l-10.71.09-8.01-8.75c-5.06,5.93-9.79,8.72-17.9,8.72-10.78,0-19.74-7.19-19.74-16.99,0-8.9,7.8-13.45,15.76-15.98-4.14-4.89-5.93-9.18-5.93-13.08,0-7.56,6.82-11.86,15.23-11.86,7.9.04,13.88,3.56,13.88,10.36Zm-13.69-7.8c-4.82,0-6.81,3.05-6.81,6.51,0,4.58,2.76,8.33,6.44,12.38,3.74-1.76,7.87-4.97,7.87-11.09.06-5.12-3.05-7.8-7.5-7.8Zm-14.83,35.94c0,8.57,5.35,14.83,13.23,14.83,4.77-.02,9.25-2.29,12.09-6.12l-18.82-20.76c-4.52,2.12-6.49,7.55-6.49,12.06Z"/>
  <path class="cls-1" d="m236.93,49.01v-26.29h-6.52v-3.37h6.55v-6.76l9.56-6.29v13.05h11.48v3.35h-17.65v.96c4.64.53,6.21,5.53,6.21,8.33v15.38c0,6.15,2.18,8.2,6.01,8.2,2.69,0,5.27-1.07,7.18-2.97l.96.76c-2.33,4.03-6.42,8.07-12.92,8.07-6.02-.04-10.87-3.26-10.87-12.43Z"/>
</svg>