<svg width="93" height="10" viewBox="0 0 93 10" fill="none" xmlns="http://www.w3.org/2000/svg">
<path fill-rule="evenodd" clip-rule="evenodd" d="M4.41973 1.39624C3.28435 1.39624 2.35533 1.7498 1.61408 2.44892C0.873455 3.14744 0.5 4.02308 0.5 5.0772C0.5 6.07565 0.84926 6.91835 1.56394 7.59169C2.27567 8.26223 3.23547 8.61198 4.46142 8.61198C5.31825 8.61198 6.17724 8.44469 7.04683 8.09408V5.31908H4.96161V5.77746H6.44603V7.78104L6.16159 7.86627C5.53853 8.06559 4.97875 8.16984 4.50312 8.16984C3.54201 8.16984 2.72612 7.88484 2.09638 7.2893C1.46755 6.69464 1.15085 5.92882 1.15085 5.01223C1.15085 4.1329 1.46977 3.37786 2.09373 2.77019C2.71817 2.16204 3.49894 1.85462 4.40305 1.85462C5.23745 1.85462 6.06565 2.06258 6.89672 2.47037V1.95691C6.37235 1.74889 5.94591 1.60537 5.60674 1.52806C5.23301 1.44287 4.83467 1.39624 4.41973 1.39624ZM4.70327 5.06908V4.81908H7.54683V8.42602L7.39503 8.49086C6.41515 8.90943 5.43948 9.11198 4.46142 9.11198C3.13551 9.11198 2.04381 8.73075 1.22108 7.95561C0.4013 7.18327 0 6.20667 0 5.0772C0 3.8897 0.427147 2.88108 1.27102 2.08518C2.11425 1.28988 3.17003 0.89624 4.41973 0.89624C4.87209 0.89624 5.30769 0.94707 5.71786 1.04056C6.12958 1.13441 6.63632 1.31095 7.24072 1.55621L7.39672 1.61951V3.31141L7.02431 3.10229C6.12932 2.59972 5.26209 2.35462 4.40305 2.35462C3.62258 2.35462 2.96897 2.61572 2.44258 3.12839C1.91569 3.64152 1.65085 4.2672 1.65085 5.01223C1.65085 5.80122 1.91791 6.43236 2.43992 6.92602C2.96102 7.41881 3.64623 7.66984 4.50312 7.66984C4.89585 7.66984 5.38053 7.58597 5.94603 7.41V6.27746H4.46161V5.06908H4.70327Z" fill="#694A26"/>
<path d="M9.48193 1.24365H13.8685V2.20203H10.5911V4.5005H13.7601V5.467H10.5911V7.80609H13.9686V8.76446H9.48193V1.24365Z" stroke="#694A26" stroke-width="0.5"/>
<path d="M21.8575 1.24365H22.9082V8.77259H21.9575L16.7871 2.9736V8.77259H15.7446V1.24365H16.637L21.8491 7.09137V1.24365H21.8575Z" stroke="#694A26" stroke-width="0.5"/>
<path d="M25.2935 1.24365H29.6801V2.20203H26.4027V4.5005H29.5717V5.467H26.4027V7.80609H29.7801V8.76446H25.2935V1.24365Z" stroke="#694A26" stroke-width="0.5"/>
<path d="M31.5649 8.77259V1.24365H33.4996C34.2835 1.24365 34.9007 1.43045 35.3593 1.81218C35.818 2.19391 36.0515 2.69746 36.0515 3.33908C36.0515 3.77766 35.9348 4.15939 35.7179 4.47614C35.4928 4.79289 35.1675 5.03655 34.7506 5.19086C35.0007 5.34517 35.2426 5.56446 35.4761 5.84061C35.7096 6.11675 36.0432 6.58781 36.4685 7.27005C36.7353 7.7005 36.9522 8.01726 37.119 8.23655L37.5276 8.77259H36.21L35.8764 8.27715C35.8764 8.27715 35.843 8.22842 35.8097 8.18781L35.5928 7.89543L35.2509 7.34314L34.884 6.75837C34.6588 6.44974 34.4503 6.20609 34.2585 6.01929C34.0667 5.84061 33.8999 5.70254 33.7415 5.62132C33.5914 5.5401 33.3329 5.49949 32.9659 5.49949H32.674V8.77259H31.5649ZM33.0076 2.16142H32.674V4.54111H33.091C33.6497 4.54111 34.0334 4.49238 34.2419 4.40304C34.4503 4.3137 34.6088 4.16751 34.7255 3.98071C34.8423 3.79391 34.9007 3.57462 34.9007 3.33908C34.9007 3.10355 34.834 2.88426 34.7089 2.69746C34.5754 2.50254 34.4003 2.37259 34.1668 2.29137C33.9333 2.21015 33.5413 2.16954 32.9993 2.16954L33.0076 2.16142Z" stroke="#694A26" stroke-width="0.5"/>
<path d="M41.5803 1.20312H42.3558L45.825 8.77267H44.6909L43.6568 6.53918H40.3627L39.3953 8.77267H38.2612L41.5803 1.20312ZM43.2064 5.5808L41.9555 2.85187L40.7963 5.5808H43.1981H43.2064Z" stroke="#694A26" stroke-width="0.5"/>
<path d="M47.2344 1.24365H48.3435V7.78984H51.8211V8.77259H47.2344V1.24365Z" stroke="#694A26" stroke-width="0.5"/>
<path d="M58.6513 5.6213L57.809 5.12587C57.2836 4.80912 56.9083 4.50049 56.6832 4.19998C56.458 3.89947 56.3496 3.55024 56.3496 3.15227C56.3496 2.55937 56.5581 2.08019 56.9834 1.70658C57.4087 1.33298 57.9591 1.1543 58.6263 1.1543C59.2934 1.1543 59.8605 1.33298 60.4026 1.68222V2.90861C59.8438 2.38881 59.2434 2.12892 58.6013 2.12892C58.2427 2.12892 57.9424 2.21013 57.7089 2.37257C57.4754 2.53501 57.3587 2.74617 57.3587 2.99795C57.3587 3.22536 57.4421 3.43653 57.6172 3.63145C57.784 3.82638 58.0592 4.03755 58.4428 4.24871L59.2851 4.73602C60.2274 5.28831 60.7028 5.98678 60.7028 6.83145C60.7028 7.43247 60.4943 7.9279 60.0773 8.30151C59.6604 8.67511 59.1266 8.87003 58.4595 8.87003C57.6923 8.87003 57.0001 8.64262 56.3746 8.1878V6.81521C56.9751 7.5543 57.6672 7.91978 58.4511 7.91978C58.8014 7.91978 59.0849 7.82232 59.3185 7.63552C59.552 7.44871 59.6687 7.21318 59.6687 6.92892C59.6687 6.47409 59.3268 6.03552 58.6513 5.6213Z" stroke="#694A26" stroke-width="0.5"/>
<path d="M61.8369 1.2356H68.2917V2.19397H65.598V8.77265H64.4889V2.19397H61.8369V1.2356Z" stroke="#694A26" stroke-width="0.5"/>
<path d="M72.9616 1.138C74.1541 1.138 75.1465 1.50349 75.9471 2.24257C76.7477 2.98166 77.1396 3.89943 77.1396 5.01212C77.1396 6.12481 76.7393 7.04257 75.9388 7.76542C75.1382 8.49638 74.1291 8.85374 72.9032 8.85374C71.6773 8.85374 70.7683 8.48826 69.9927 7.76542C69.2172 7.03445 68.8252 6.12481 68.8252 5.02836C68.8252 3.93191 69.2172 2.97354 70.0011 2.23445C70.785 1.49537 71.769 1.12988 72.9616 1.12988V1.138ZM73.0033 2.16135C72.1193 2.16135 71.3938 2.42938 70.8267 2.97354C70.2596 3.50958 69.9761 4.19993 69.9761 5.03648C69.9761 5.87303 70.2596 6.52278 70.835 7.05882C71.4104 7.59486 72.1193 7.871 72.9782 7.871C73.8372 7.871 74.5627 7.59486 75.1382 7.04257C75.7136 6.49029 76.0055 5.80806 76.0055 4.98775C76.0055 4.16745 75.7136 3.5177 75.1382 2.97354C74.5627 2.42938 73.8539 2.15323 73.0116 2.15323L73.0033 2.16135Z" stroke="#694A26" stroke-width="0.5"/>
<path d="M79.0996 8.77259V1.24365H81.0344C81.8183 1.24365 82.4354 1.43045 82.8941 1.81218C83.3527 2.19391 83.5862 2.69746 83.5862 3.33908C83.5862 3.77766 83.4695 4.15939 83.2526 4.47614C83.0275 4.79289 82.7022 5.03655 82.2853 5.19086C82.5355 5.34517 82.7773 5.56446 83.0108 5.84061C83.2443 6.11675 83.5779 6.58781 84.0032 7.27005C84.2701 7.7005 84.4869 8.01726 84.6537 8.23655L85.0623 8.77259H83.7447L83.4111 8.27715C83.4111 8.27715 83.3777 8.22842 83.3444 8.18781L83.1276 7.89543L82.7856 7.34314L82.4187 6.75837C82.1935 6.44974 81.9851 6.20609 81.7932 6.01929C81.6014 5.84061 81.4347 5.70254 81.2762 5.62132C81.1261 5.5401 80.8676 5.49949 80.5006 5.49949H80.2088V8.77259H79.0996ZM80.5423 2.16142H80.2088V4.54111H80.6257C81.1845 4.54111 81.5681 4.49238 81.7766 4.40304C81.9851 4.3137 82.1435 4.16751 82.2603 3.98071C82.377 3.79391 82.4354 3.57462 82.4354 3.33908C82.4354 3.10355 82.3687 2.88426 82.2436 2.69746C82.1101 2.50254 81.935 2.37259 81.7015 2.29137C81.468 2.21015 81.0761 2.16954 80.534 2.16954L80.5423 2.16142Z" stroke="#694A26" stroke-width="0.5"/>
<path d="M86.48 1.24365H90.8666V2.20203H87.5892V4.5005H90.7581V5.467H87.5892V7.80609H90.9666V8.76446H86.48V1.24365Z" stroke="#694A26" stroke-width="0.5"/>
</svg>
