
<svg width="50" height="52" viewBox="0 0 50 52" fill="none" xmlns="http://www.w3.org/2000/svg">
<path d="M36.2313 25.8806L27.8357 30.8545L19.4775 35.79V25.8806V15.9712L27.8357 20.9068L36.2313 25.8806Z" fill="white"/>
<path d="M25 51.5156C11.2313 51.5156 0 39.9991 0 25.8809C0 11.7626 11.2313 0.246094 25 0.246094C38.7687 0.246094 50 11.7626 50 25.8809C50 39.9991 38.7687 51.5156 25 51.5156ZM25 1.77653C12.0522 1.77653 1.49254 12.6043 1.49254 25.8809C1.49254 39.1574 12.0522 49.9852 25 49.9852C37.9478 49.9852 48.5075 39.1574 48.5075 25.8809C48.5075 12.6043 37.9478 1.77653 25 1.77653Z" fill="white"/>
</svg>