<svg width="34" height="31" viewBox="0 0 34 31" fill="none" xmlns="http://www.w3.org/2000/svg">
  <path d="M29.2153 19.0943V19.5694C30.8976 19.9858 30.7344 20.0903 29.9749 22.334L28.1279 27.0842C26.3156 22.4559 24.523 18.5686 22.788 15.5855C24.4752 13.2484 25.533 10.3318 25.6845 7.62095H23.1868C23.4537 10.0388 23.0401 12.4789 22.096 14.4407C19.6642 10.5677 17.3641 8.55358 15.3145 8.87343L15.1497 8.71509C19.2226 8.08173 21.9362 6.46981 21.9362 3.60068C21.9362 1.25248 19.8191 0 16.9407 0C13.9008 0 11.4031 1.51374 11.4031 4.17387C11.4031 5.53085 12.0539 6.99234 13.5203 8.66284C10.6419 9.6018 7.87391 11.1678 7.87391 14.2459C7.87458 14.5711 7.90658 14.8955 7.96947 15.215C6.93698 15.6342 6.06739 16.3541 5.48323 17.2734V14.3457C5.48323 11.684 5.59198 9.96282 5.59198 8.55358L0 9.6493V10.1243C1.95406 10.2288 2.0628 11.0126 2.0628 13.2041V24.9941C2.0628 26.5079 1.95406 27.9694 1.95406 29.5338H2.39726L4.18986 28.2813C5.46869 29.1706 7.0088 29.6459 8.58732 29.6383C12.0737 29.6383 15.1942 27.0035 15.6869 22.9879L18.524 31H20.0991L23.3021 23.0687L26.3979 31H27.9731L31.611 21.555C32.153 20.0935 32.6967 19.8845 34 19.5725V19.0975L29.2153 19.0943ZM17.0511 0.885128C18.5718 0.885128 19.712 1.82409 19.712 3.59909C19.712 5.73828 18.2456 6.834 16.888 7.46103C15.5847 6.05179 14.6077 4.74706 14.6077 3.12882C14.6077 1.97768 15.2601 0.88196 17.0511 0.88196V0.885128ZM14.0112 9.1822C16.3904 11.4702 18.3774 14.0908 20.1634 17.085C19.1188 18.0176 17.8469 18.575 16.4003 18.575C13.5219 18.575 11.6222 16.3835 11.6222 13.3576C11.6239 11.7885 12.3818 9.91056 14.0112 9.17903V9.1822ZM8.57414 28.5948C7.37962 28.5948 6.07637 28.0739 5.47829 27.1856V18.0018C6.07637 17.3684 6.94466 17.0628 7.92334 17.0628C10.4755 17.0628 12.1033 19.7752 12.1033 23.273C12.1181 26.5047 11.0785 28.5916 8.58073 28.5916L8.57414 28.5948ZM20.3578 27.0811L18.1846 21.2367C17.9293 20.4197 17.7744 19.9541 18.3494 19.3889C19.182 19.0017 19.9544 18.505 20.6445 17.9131C21.3189 19.0891 21.9692 20.3199 22.5953 21.6056L20.3578 27.0811Z" fill="#694A26"/>
  </svg>
  