<?xml version="1.0" encoding="UTF-8" standalone="no"?>
<svg
   id="Layer_1"
   data-name="Layer 1"
   viewBox="0 0 403.71 179.64"
   version="1.1"
   sodipodi:docname="SperrybyCE-brown.svg"
   inkscape:export-filename="SperrybyCE-brown.svg"
   inkscape:export-xdpi="96"
   inkscape:export-ydpi="96"
   inkscape:version="1.3 (0e150ed, 2023-07-21)"
   xmlns:inkscape="http://www.inkscape.org/namespaces/inkscape"
   xmlns:sodipodi="http://sodipodi.sourceforge.net/DTD/sodipodi-0.dtd"
   xmlns="http://www.w3.org/2000/svg"
   xmlns:svg="http://www.w3.org/2000/svg">
  <sodipodi:namedview
     id="namedview28"
     pagecolor="#ffffff"
     bordercolor="#cccccc"
     borderopacity="1"
     inkscape:showpageshadow="0"
     inkscape:pageopacity="1"
     inkscape:pagecheckerboard="0"
     inkscape:deskcolor="#d1d1d1"
     inkscape:zoom="1.8825395"
     inkscape:cx="201.855"
     inkscape:cy="90.037952"
     inkscape:window-width="1824"
     inkscape:window-height="1212"
     inkscape:window-x="273"
     inkscape:window-y="75"
     inkscape:window-maximized="0"
     inkscape:current-layer="Layer_1" />
  <defs
     id="defs1">
    <style
       id="style1">&#10;      .cls-1 {&#10;        fill: #231f20;&#10;        stroke-width: 0px;&#10;      }&#10;    </style>
  </defs>
  <path
     class="cls-1"
     d="M206.47,97.21c-.91.27-1.67-.09-2.42-.54-.5-.31.17-2.25.32-2.91.15-.66.28-2.24.79-2.69.6-.54,1.45-.51,2.13-.67,1.78-.4,3.57-.78,5.35-1.2,1.44-.34,2.87-.98,3.85-2.48.58-.88.94-1.92,1.19-2.96.34-1.36.47-1.8-.45-2.56-.64-.51-3.09-1.36-3.83-.53-2.87.07-5.81.51-8.69,1.32-1.23.35-2.36,1.2-3.58,1.42-1.95.37-3.44,2.78-4.52,4.73-.46.82-.74,1.29-.47,2.12.22.67.55,1.28.96,1.79.2.24.4.47.63.67-.04.49-.11.94-.26,1.42-.39,1.3-1.09,2.45-1.72,3.63-.7,1.32-1.3,2.67-1.85,4.08-.85,2.18-1.64,4.38-2.47,6.57-.52,1.36-1.02,2.71-1.4,4.13-.85,3.09-4.45,3.74-5.03,7.21-.68,3.99,2.78,3.9,5.14,3.78,1.82-.09,3.65-.21,5.47-.46,3.54-.49,10.53-1.63,11.27-7.35.09-.74.04-1.45-.05-2.15-.04-.32-.79-.45-.99-.51-1.43-.41-2.99-.27-4.49.04-.91.18-2.29.92-3.13.57-.68-.27-1.03-.47-.85-1.52.13-.78.49-1.53.81-2.25.26-.59.32-1.29.58-1.87.7-1.33,1.94-1.97,3.1-2.36,1.52-.5,3.16-.92,4.7-1.03,1.13-.02,1.48-.14,2.29-1.31.75-1.08,1.19-2.54,1.08-3.84-.21-2.55-1.69-2.81-3.47-2.3Z"
     id="path1"
     style="fill:#694a26;fill-opacity:1" />
  <path
     class="cls-1"
     d="M268.67,96.76c-.86.23-.58-.08-1.28-.48-.47-.27.16-1.96.3-2.54.14-.57.26-1.96.75-2.35.56-.47,1.36-.44,2-.58,1.67-.35,1.69-.34,3.36-.71,1.35-.3,2.69-.86,3.61-2.17.54-.77.88-1.68,1.12-2.59.32-1.19.44-1.58-.43-2.24-.6-.44-2.9-1.19-3.6-.47-2.7.06-3.79.11-6.49.82-1.16.3-2.21,1.05-3.36,1.25-1.83.32-2.86,1.99-3.87,3.7-.43.72-.69,1.12-.44,1.85.21.58.15,1.56.53,2.01.19.21.38.41.59.58-.03.43-.1.82-.24,1.24-.36,1.13-1.03,2.14-1.61,3.17-.66,1.15-1.22,2.34-1.73,3.57-.8,1.9-1.54,3.83-2.32,5.75-.49,1.19-.96,2.37-1.32,3.61-.79,2.7-3.03,3.27-3.58,6.31-.64,3.49,1.46,3.41,3.68,3.31,1.71-.08,3.43-.18,5.14-.4,3.32-.43,9.1-.99,9.79-5.98.08-.64.03-1.26-.05-1.88-.03-.28-.74-.39-.93-.45-1.34-.36-2.02-.68-3.43-.41-.85.15-2.15.8-2.94.5-.64-.23-.97-.41-.8-1.33.12-.68.46-1.34.76-1.97.24-.52.3-1.12.55-1.64.66-1.17,1.82-1.73,2.91-2.06,1.43-.44,1.97-.8,3.42-.9,1.06-.02,1.19-.25,1.96-1.27.71-.95,1.12-2.22,1.02-3.36-.2-2.23-1.39-2.33-3.06-1.88Z"
     id="path2"
     style="fill:#694a26;fill-opacity:1" />
  <path
     class="cls-1"
     d="M363.2,105.3c1.79-3.76,3.14-7.7,4.75-11.54.92-2.19,2.63-4.58,2.38-7.04-.2-1.98-1.74-3.21-3.7-3.29-.54-.04-1.28.48-1.76.69-1.72.77-2.49,1.53-3.45,3.16-2.07,3.45-3.56,7.21-4.95,10.95-.73,1.98-1.45,3.97-2.17,5.95-.75,2.04-1.52,4.18-1.5,6.39.01,1.04.24,2.15,1.01,2.9,1.21,1.21,2.79.77,4.22.26,2.02-.71,2.76-2.13,3.6-3.95.7-1.53,1.43-2.81,1.56-4.48Z"
     id="path3"
     style="fill:#694a26;fill-opacity:1" />
  <path
     class="cls-1"
     d="M140.08,77.98c-.64-.21-1.6-.75-2.29-.54-2.21.41-4.27.74-6.32,1.72-2.69,1.27-5.14,2.97-7.27,4.98-2.13,2.01-3.89,4.3-5.5,6.69-1.51,2.22-3.17,4.84-2.98,7.6.31,4.62,5.57,4.97,9.3,5.24.81.06,2.49.66,2.35,1.6-.17,1.16-.67,2.25-1.62,3.01-.9.72-2.03,1.11-3.12,1.44-.99.3-1.69.24-2.72.16-.91-.07-1.82-.14-2.74-.2-.58-.05-.86-.37-1.5-.21-.88.23-1.69.7-2.35,1.29-2.48,2.13-2.23,5.41.9,6.61,5.77,2.22,12.27-1.12,16.62-4.69,2.46-2.01,5.03-4.66,5.61-7.83.49-2.62-.6-5.9-3.41-6.86-1.22-.43-2.45-.93-3.75-1.07-.86-.09-1.65-.14-2.46-.41-.47-.15-1.15-.27-1.52-.6-.51-.73.13-1.62.58-2.21,1.71-2.21,3.56-4.43,6.15-5.7,1.16-.57,3.78-1.59,4.88-.66,1.47,1.23,3.2,1.34,4.62,0,2.03-1.92,4.27-5.32,1.91-7.76-.91-.93-2.16-1.22-3.36-1.59Z"
     id="path4"
     style="fill:#694a26;fill-opacity:1" />
  <path
     class="cls-1"
     d="M51.74,85.67c2.4-7.37-4.68-12.36-11.51-7.94-13.54,8.76-17.77,26.22-15.16,33.95,2.95,8.75,19.68,1.74,19.82-5.68-2.75-6.85-10.1,3.09-11.93,2.21-2.52-1.21-1-7.86,2.15-13.92,2.61-5.03,7.16-10.8,8.52-10.8.96,0,1.23,1.75,1.43,3.52.19,1.69,5.59,3.09,6.69-1.33Z"
     id="path5"
     style="fill:#694a26;fill-opacity:1" />
  <path
     class="cls-1"
     d="M74.04,79.01c-5.23,4.25-5.59,10.33-8.99,16.2-1.72.17-2.86.29-4.82.67,2.17-5.39,4.61-8.47,6.3-13.33.29-3.1-4.59-4.46-6.72-2.39-4.87,7.56-8.48,17.09-12.21,25.25-2.07,4.1-4.51,11.06,3.3,9.4,5.02-3.86,2.32-12.02,11.4-11.83-.94,3.27-3.75,5.62-2.72,8.85.99,2.22,4.56,2.86,6.29,1.12,5.13-10.24,7.82-19.02,13.16-29.35,1.61-2.81-1.92-5.84-5-4.59Z"
     id="path6"
     style="fill:#694a26;fill-opacity:1" />
  <path
     class="cls-1"
     d="M290.21,85.79c-4.33,6.74-8.35,19.69-12.33,26.77-.25-4.88,7.15-20.13,1.52-21.02-6.1-.96-4.54,10.88-6.47,16.07,0,4.74-4.61,19.29,4.39,16.01,7.71-10.08,11.73-22.12,18.12-33.19,2.27-3.39-1.97-7.78-5.23-4.63Z"
     id="path7"
     style="fill:#694a26;fill-opacity:1" />
  <path
     class="cls-1"
     d="M310.07,93.33c.48-1.99.93-3.86,1.36-5.61.2-.91.22-1.71.04-2.4-.18-.69-.48-1.28-.92-1.75-.43-.47-.94-.83-1.53-1.07-.59-.24-1.17-.35-1.73-.32-.67.03-1.31.21-1.92.53-.61.33-1.16.7-1.67,1.14-.5.44-.93.87-1.28,1.31-.35.44-.61.8-.78,1.09-.58.94-1.27,2.11-2.06,3.5-.79,1.39-1.64,2.94-2.54,4.64-.9,1.7-1.84,3.47-2.81,5.32-.97,1.85-1.91,3.69-2.81,5.51s-1.75,3.59-2.53,5.27c-.78,1.68-1.44,3.19-1.99,4.52-.25.62-.38,1.19-.38,1.72,0,.53.07,1.03.22,1.48s.37.84.64,1.17c.27.32.59.58.94.78.33.16.7.26,1.11.29.41.03.82-.03,1.22-.19.4-.16.79-.42,1.14-.78.36-.36.65-.86.88-1.51.11-.29.23-.59.36-.9.13-.31.26-.62.4-.95.96-.26,1.88-.49,2.76-.68.88-.19,1.68-.37,2.42-.53-.29,1.2-.5,2.08-.64,2.65-.14.57-.21.88-.22.95-.15.65-.19,1.23-.11,1.75.08.52.24.95.5,1.31.26.36.57.63.93.83.37.2.75.31,1.15.34.37.03.77,0,1.2-.12.43-.11.82-.31,1.19-.58.36-.28.7-.65,1-1.12.3-.47.52-1.03.64-1.68.18-.91.42-2.08.74-3.52.31-1.44.66-3.04,1.05-4.79.39-1.75.8-3.61,1.24-5.59.44-1.98.89-3.98,1.36-6s.95-4.03,1.43-6.02ZM300.57,106.86c-.44.1-.92.2-1.44.29-.52.1-2.05.26-2.65.39.99-2.04,1.99-4.84,2.98-6.81.99-1.98,4.32-8.75,5.16-10.37-.42,4.06-3.39,13.58-4.05,16.49Z"
     id="path8"
     style="fill:#694a26;fill-opacity:1" />
  <path
     class="cls-1"
     d="M387.12,88.35c-.19-.67-.51-1.23-.97-1.67-.45-.45-.99-.79-1.61-1.02-.62-.23-1.23-.33-1.83-.3-.71.03-1.38.2-2.03.51-.64.31-1.23.67-1.76,1.09-.53.42-.98.84-1.35,1.26-.37.42-.65.77-.82,1.04-.61.9-1.34,2.02-2.17,3.35-.83,1.33-1.73,2.81-2.68,4.44-.95,1.63-1.94,3.32-2.97,5.09-1.03,1.77-2.02,3.53-2.97,5.28-.95,1.75-1.84,3.43-2.67,5.05-.82,1.61-1.52,3.05-2.09,4.32-.27.59-.4,1.14-.41,1.65,0,.51.07.98.24,1.42.16.44.38.81.67,1.12.29.31.62.56.99.74.35.15.74.25,1.17.28.43.03.86-.03,1.29-.19.43-.15.83-.4,1.21-.74.38-.34.69-.82.93-1.44.12-.28.24-.57.38-.86.13-.29.27-.6.42-.91,1.02-.25,1.99-.46,2.91-.65.92-.19,1.78-.36,2.56-.51-.3,1.15-.53,1.99-.68,2.53-.15.54-.23.84-.23.91-.16.62-.2,1.18-.11,1.67.08.5.26.91.53,1.26.27.34.6.6.98.79.39.19.79.29,1.21.33.39.03.81,0,1.26-.12.45-.11.87-.3,1.25-.56.38-.26.73-.62,1.06-1.07.32-.45.54-.98.67-1.6.19-.87.45-1.99.78-3.37.33-1.38.7-2.91,1.11-4.58.41-1.67.84-3.45,1.31-5.35.46-1.89.94-3.8,1.44-5.74.5-1.94,1-3.86,1.5-5.76.5-1.91.98-3.7,1.43-5.37.22-.87.23-1.64.04-2.3ZM375.62,108.97c-.46.09-.97.19-1.51.28-.55.1-1.14.2-1.77.33,1.05-1.95,1.77-4.96,2.81-6.85,1.04-1.89,2.86-4.78,3.75-6.34-1.13,4.09-1.87,8.73-3.27,12.58Z"
     id="path9"
     style="fill:#694a26;fill-opacity:1" />
  <path
     class="cls-1"
     d="M150.94,57.19c.22,1.5,1.07,1.63,2.3,1.59,1.13-.03,1.52-1.1,2.12-1.86,3.36-4.18,6.39-8.82,9-13.5.61-1.1,1.07-2.64-.1-3.58-.77-.64-1.62-.56-2.36,0-1.73,1.33-2.76,3.3-4,5.08-.74-1.81-2.54-8.63-5.42-5.76-1.34,1.4-.19,4.2.36,5.6.54,1.39,1.18,2.72,1.8,4.07.36.77-.58,1.57-1.04,2.24-1.27,1.82-3.03,3.71-2.67,6.14Z"
     id="path10"
     style="fill:#694a26;fill-opacity:1" />
  <path
     class="cls-1"
     d="M95.75,40.52c-1.9,2.73-2.52,6.6-3.49,9.73-.23.73-.47,1.45-.63,2.19-.31,1.4,0,1.98.75,3.06.75,1.08,2.51.85,2.89-.43.22-.71.45-1.41.64-2.13.17-.66.34-1.31.6-1.94.23-.55.31-.51.81-.53.67-.01,1.29-.04,1.94-.16.85-.16,1.22-.43,1.97-.73,1.84-.73,3.78-2.8,4.84-4.37,1.97-2.91,2.4-6.58-.86-8.63-1.27-.81-2.49-1.63-4.09-1.49-.71.05-1.42.1-2.15.16h0s-.11,0-.11,0h.07c-1.64.52-3,1-4.06,2.46-.77,1.09-.87,2.97.88,2.79ZM98.71,39.81c.41-.13.79-.3,1.23-.24.82-.31,1.81-.29,2.63,0,1.11.37.77,1.53.38,2.4-.82,1.8-2.77,3.7-4.82,3.82.27-1.64,2.28-4.61.57-5.98Z"
     id="path11"
     style="fill:#694a26;fill-opacity:1" />
  <path
     class="cls-1"
     d="M138.33,55.85c1.49-.03,1.86-1.82,2.29-2.92.62.46.77,1.2,1.27,1.73.36.36.67.78.98,1.19.55.76,1.22,1.84,2.21,2.12,1.03.28,2.12-.36,2.8-1.09,1.39-1.51-.3-2.99-1.3-4.06-.62-.68-1.99-1.64-.92-2.42,1.33-.97,2.46-1.81,3.3-3.28.57-1,.95-2.08,1.31-3.16.06-.22-.09-.38-.09-.59.01-.45.16-.77,0-1.24-.18-.59-.14-1.09-.46-1.66-.49-.89-1.31-1.57-2.14-2.11-1.22-.79-1.99-.86-3.41-.94-1.79-.04-4.08.37-5.22,1.93-.65.9-.99,2.12-.27,2.97.27.32.63.51.53.86-.18.6-.5,1.15-.7,1.73-.5,1.41-1.05,2.84-1.48,4.28-.37,1.26-1.21,3.11-1.1,4.42.1,1.05,1.34,2.25,2.37,2.23ZM142.86,45.55c.2-1.25.9-2.37.24-3.56.55-.29,1.33-.08,1.93-.08,2.24,1.53-.4,4.66-1.99,5.49-1.55.81-.29-1.19-.18-1.85Z"
     id="path12"
     style="fill:#694a26;fill-opacity:1" />
  <path
     class="cls-1"
     d="M80.02,54.04c2.36,1.17,5.09-.18,6.95-1.66,2.04-1.63,4.55-4.92,2.41-7.45-1.04-1.22-2.58-.99-3.92-1.48.46-1.24,1.84-2.64,3.08-3.02.9-.28,1.29.49,2.18.4.86-.1,1.4-.82,1.81-1.51.75-1.29,1.19-2.88-.37-3.83-.56-.34-1.84-.89-2.51-.65-1.75.4-3.19,1.05-4.59,2.23-1.98,1.69-4.11,4.45-4.59,7.07-.46,2.53,1.41,3.44,3.52,3.71.31.03.64.04.95.06.44.32.11.84-.27,1.15-.92.74-1.91.56-3,.51-2.29-.13-4.15,3.23-1.64,4.48Z"
     id="path13"
     style="fill:#694a26;fill-opacity:1" />
  <path
     class="cls-1"
     d="M122.44,55.09c1.48-.02,1.85-1.82,2.28-2.91.62.45.78,1.21,1.28,1.75.36.36.65.75.96,1.17.55.77,1.22,1.86,2.2,2.11,1.04.3,2.12-.34,2.8-1.08,1.39-1.52-.3-2.98-1.3-4.06-.61-.67-1.99-1.63-.9-2.42,1.32-.98,2.46-1.81,3.29-3.29.57-.99.96-2.07,1.32-3.16.07-.21-.05-.41-.1-.63-.08-.39.16-.75.02-1.19-.18-.59-.14-1.09-.46-1.66-.49-.89-1.31-1.57-2.15-2.11-1.21-.79-1.98-.86-3.41-.93-1.78-.06-4.08.36-5.21,1.92-.65.89-.99,2.12-.27,2.97.26.31.63.51.53.86-.17.6-.5,1.15-.7,1.72-.44,1.29-.95,2.57-1.34,3.87-.42,1.31-1.13,3.03-1.24,4.42-.09,1.2,1.12,2.68,2.38,2.65ZM126.99,44.58c.2-1.2.83-2.17.2-3.34.55-.3,1.33-.09,1.94-.08,2.3,1.58-.53,4.92-2.27,5.62-1.16.47.05-1.66.13-2.19Z"
     id="path14"
     style="fill:#694a26;fill-opacity:1" />
  <path
     class="cls-1"
     d="M108.79,44.85c-.22.48-.34,1.05-.5,1.56-.37,1.15-.72,2.3-1.05,3.46-.11.35-.11,1.17-.38,1.44-.61.62-1.36,1.18-1.7,2-1.33,3.16,2.6,2.99,4.46,2.81,2.23-.23,6.01-.58,6.81-3.17.2-.61.13-1.24-.04-1.84-.12-.45-.19-.32-.58-.52-1.33-.45-2.77-.08-4.07.28-.18-2.53,2.5-2.57,4.3-3.06,1.3-.36,1.76-2.25,1.08-3.35-.47-.76-1.32-.92-2.16-.78-1.12.19-1.01-.14-.86-1.22.07-.56,1.73-.7,2.29-.83,1.02-.24,2.09-.37,2.8-1.23.52-.62,1.26-2.43.56-3.06-.52-.46-2.36-1.24-2.97-.6-1.39.08-2.79.3-4.13.68-.54.15-1,.52-1.55.64-1.37.27-3.1,2.59-2.28,3.91.49.8.92.78.47,1.81-.16.35-.34.71-.5,1.07Z"
     id="path15"
     style="fill:#694a26;fill-opacity:1" />
  <path
     class="cls-1"
     d="M161.81,114.08s.82-.15.2-1.04c-.61-.9-1.72,0-1.72,0-1.39,1.2-2.83,2.39-4.3,3.58,0,0-1.09.93-.63,1.47.16.18,2.65-1.19,6.44-4.02Z"
     id="path16"
     style="fill:#694a26;fill-opacity:1" />
  <path
     class="cls-1"
     d="M109.12,143.01c-1.16-.01-2.92-.77-3.46-.92l.09-.07c.28-.22.5-.61.57-.94.11-.52-.16-.92-.68-1.03-.45-.09-4.54-1.23-6.43-.56-.5.18-.74,1-.56,1.49.18.5.75.63,1.25.45.94-.33,3.25.28,4.81.63l.22.2c-.38.21-.74.56-.82.86-.15.51.27,1.58.77,1.74.97.27,3.7.06,4.2.08.53,0,.82-.65.83-1.17,0-.53-.27-.74-.8-.76Z"
     id="path17"
     style="fill:#694a26;fill-opacity:1" />
  <path
     class="cls-1"
     d="M113.03,133.8c-1.91-.25-1.83-.9-3.74-1.15-.53-.06-1.06.72-1.13,1.24-.07.52.31,1.04.84,1.1,1.9.24,1.93.06,3.84.3.52.07.57-.21.65-.73.06-.53.06-.71-.46-.76Z"
     id="path18"
     style="fill:#694a26;fill-opacity:1" />
  <path
     class="cls-1"
     d="M191.06,141.58c-3.22,1.81-5.71,1.44-7.16-.38-2.43-3.03-6.09-1.97-7.69-.89-.43.3.03.7.32,1.14.3.44.34.77.77.48.13-.08,3.09-1.86,5.01.53,2.08,2.6,5.57,3,9.64.71.46-.25.91-1.46.65-1.93-.25-.46-1.08.08-1.54.34Z"
     id="path19"
     style="fill:#694a26;fill-opacity:1" />
  <path
     class="cls-1"
     d="M92.3,101.31c2.49-1.95,4.62-3.62,6.36-6.57,1.19-1.98,2.08-4.14,2.93-6.32.16-.42,0-.82-.04-1.27-.06-.78.44-1.5.28-2.38-.18-1.18-.02-2.18-.45-3.31-.66-1.78-1.94-3.13-3.26-4.22-1.93-1.57-3.24-1.72-5.68-1.86-3.05-.13-7.11.73-9.39,3.84-1.31,1.78-2.15,4.24-1.08,5.94.39.63.98,1.02.74,1.72-.42,1.19-1.1,2.29-1.56,3.44-1.03,2.57-2.17,5.13-3.12,7.72-.99,2.62-2.58,6.05-3.05,8.83-.4,2.39,1.38,5.35,3.56,5.3,2.55-.05,3.56-3.64,4.54-5.82.98.9,1.09,2.42,1.84,3.49.54.73.97,1.51,1.42,2.33.79,1.54,1.72,3.71,3.36,4.22,1.73.61,3.73-.68,5.06-2.16,2.71-3.05.11-5.96-1.4-8.12-.92-1.34-3.09-3.26-1.06-4.83ZM87.89,95.58c-2.1.93.42-3.31.69-4.38.59-2.4,1.88-4.34,1.03-6.68,1.01-.6,2.31-.18,3.36-.16,3.64,3.15-1.94,9.82-5.08,11.22Z"
     id="path20"
     style="fill:#694a26;fill-opacity:1" />
  <path
     class="cls-1"
     d="M114,92.02c.89-2.08,2.55-4.35,2.31-6.68-.2-1.88-1.69-3.04-3.59-3.13-.52-.03-1.24.45-1.71.65-1.67.73-2.41,1.45-3.35,3-2.01,3.28-3.45,6.84-4.8,10.4-.71,1.88-1.41,3.77-2.1,5.65-.73,1.93-1.48,3.97-1.46,6.07,0,.98.23,2.04.98,2.76,1.18,1.15,2.7.73,4.09.25,1.96-.67,2.68-2.02,3.49-3.75.68-1.46,1.39-2.67,1.51-4.26,1.73-3.57,3.05-7.32,4.6-10.96Z"
     id="path21"
     style="fill:#694a26;fill-opacity:1" />
  <path
     class="cls-1"
     d="M333.26,95.65c-.06-.7.41-1.35.26-2.14-.17-1.06-.02-1.96-.42-2.97-.62-1.6-1.8-2.81-3.03-3.79-1.79-1.41-3.01-1.55-5.27-1.67-2.83-.11-6.6.65-8.71,3.45-1.21,1.6-1.99,3.81-1,5.34.36.56.91.92.69,1.55-.39,1.07-1.02,2.06-1.45,3.09-.95,2.31-2.01,4.61-2.89,6.94-.92,2.36-2.4,5.44-2.83,7.94-.37,2.15,1.28,4.81,3.3,4.76,2.37-.04,3.31-3.27,4.22-5.22.91.81,1.01,2.17,1.71,3.13.5.66.9,1.36,1.31,2.09.73,1.38,1.6,3.33,3.12,3.79,1.6.54,3.46-.61,4.69-1.94,2.52-2.74.1-5.36-1.29-7.29-.85-1.2-2.87-2.93-.98-4.34,2.31-1.76,4.28-3.26,5.9-5.9,1.11-1.78,1.93-3.72,2.72-5.67.15-.38,0-.74-.03-1.14ZM320.58,103.22c-1.94.84.39-2.97.64-3.94.54-2.16,1.75-3.9.96-6,.94-.54,2.14-.16,3.12-.14,3.38,2.83-1.8,8.83-4.72,10.08Z"
     id="path22"
     style="fill:#694a26;fill-opacity:1" />
  <path
     class="cls-1"
     d="M346.82,105.16c2.24-1.78,4.16-3.31,5.73-5.99,1.07-1.81,1.87-3.78,2.64-5.76.14-.38,0-.75-.03-1.15-.06-.71.4-1.37.25-2.17-.17-1.08-.02-1.99-.4-3.02-.6-1.63-1.75-2.85-2.94-3.85-1.74-1.43-2.92-1.57-5.12-1.69-2.75-.12-6.41.66-8.46,3.5-1.18,1.63-1.94,3.87-.98,5.42.35.57.89.93.67,1.57-.38,1.09-.99,2.09-1.41,3.14-.93,2.35-1.96,4.68-2.81,7.04-.89,2.39-2.33,5.52-2.75,8.06-.36,2.18,1.24,4.88,3.2,4.83,2.3-.04,3.21-3.32,4.09-5.3.88.82.98,2.21,1.66,3.18.48.66.87,1.38,1.28,2.12.71,1.4,1.55,3.38,3.03,3.85,1.56.55,3.36-.62,4.56-1.97,2.44-2.78.1-5.44-1.26-7.41-.83-1.22-2.78-2.97-.95-4.4ZM342.84,99.93c-1.89.85.38-3.02.62-4,.53-2.19,1.7-3.96.93-6.09.91-.55,2.08-.17,3.03-.14,3.28,2.88-1.75,8.96-4.58,10.24Z"
     id="path23"
     style="fill:#694a26;fill-opacity:1" />
  <path
     class="cls-1"
     d="M234.73,93.32c2.15-7.81-4.19-13.1-10.31-8.42-12.12,9.28-15.93,27.23-13.61,34.5,2.71,8.5,18.58.87,15.41-4.83-2.49-4.47-6.71,2.08-8.35,1.15-2.26-1.28-.85-6.85,1.96-13.28,2.34-5.33,6.41-11.44,7.63-11.44.86,0,1.1,1.85,1.28,3.73.17,1.79,5,3.27,5.99-1.41Z"
     id="path24"
     style="fill:#694a26;fill-opacity:1" />
  <path
     class="cls-1"
     d="M253.23,83.25c-4.48,4.56-4.79,11.07-7.7,17.37-1.48.18-2.45.31-4.13.72,1.86-5.78,3.28-7.91,4.73-13.12.25-3.33-3.93-4.78-5.76-2.56-4.18,8.1-6.6,17.15-9.8,25.9-1.78,4.4-3.69,10.86,2.99,9.08,4.3-4.14,1.81-11.89,9.6-11.68-.8,3.51-2.83,4.5-1.94,7.97.85,2.38,3.9,3.06,5.39,1.21,4.4-10.98,6.31-18.87,10.89-29.95,1.38-3.01-1.64-6.26-4.28-4.93Z"
     id="path25"
     style="fill:#694a26;fill-opacity:1" />
  <path
     class="cls-1"
     d="M149.22,65.28c-.16.04-.29.09-.4.17-.11.08-.19.17-.26.26-.06.1-.11.21-.13.32-.02.12-.02.23,0,.34.02.18.11.35.25.5-.47,1.2-.85,2.18-1.14,2.93-.29.75-.51,1.34-.67,1.76s-.27.71-.32.86c-.06.16-.09.24-.1.25-.06.15-.07.3-.03.44.04.14.1.27.19.38s.19.21.3.3c.11.09.22.16.31.21.14.07.32.11.52.12.2,0,.42,0,.65-.04.23-.04.47-.09.71-.17.24-.08.47-.17.7-.27.28-.12.57-.27.88-.45.3-.17.58-.37.83-.59.25-.22.46-.46.62-.72.16-.26.25-.55.25-.86s-.08-.58-.23-.83c-.15-.25-.35-.48-.6-.67.1-.07.19-.15.29-.22.1-.07.2-.14.31-.22.3-.23.57-.47.82-.73s.45-.54.58-.82c.1-.22.16-.45.17-.69.01-.24-.03-.47-.11-.69-.09-.22-.23-.42-.42-.58-.19-.17-.44-.29-.74-.37-.27-.07-.56-.11-.87-.12-.31-.01-.61-.01-.91,0-.3.02-.57.05-.82.08-.25.04-.46.07-.63.11ZM150.52,71.36c-.05.07-.14.16-.26.25-.12.1-.29.2-.5.31s-.57.16-1.19.19c.08-.21.17-.45.28-.74.11-.28.23-.61.38-.99.34.08,1.08.11,1.23.23.15.12.14.46.15.56,0,.04-.03.1-.08.18ZM150.32,67.55c.08-.19.16-.39.25-.61h0c.15-.03.5-.04.65-.04.15,0,.6-.05.73-.04-.03.22-.4.78-.59,1.01-.35.42-.92.58-1.48.65.06-.18.37-.78.44-.98Z"
     id="path26"
     style="fill:#694a26;fill-opacity:1" />
  <path
     class="cls-1"
     d="M160.57,65.55c-.08-.09-.17-.16-.27-.22-.1-.06-.22-.1-.34-.13s-.24-.04-.37-.02-.25.06-.37.12-.22.16-.32.28c-.26.35-.57.77-.92,1.25-.35.48-.71.98-1.07,1.51-.08-.32-.15-.63-.22-.93-.07-.31-.12-.58-.16-.81-.02-.15-.08-.27-.16-.38s-.17-.19-.28-.25c-.1-.06-.22-.1-.34-.12-.12-.02-.25-.03-.37-.01-.12.02-.23.06-.34.12-.11.06-.2.13-.28.22-.08.09-.14.19-.17.31-.04.12-.04.26-.02.4.04.23.1.51.17.83.07.33.15.66.23,1s.17.67.25.98.15.58.2.78c-.3.44-.56.83-.79,1.19-.23.36-.4.64-.52.86-.14.26-.17.51-.08.75.09.23.23.41.43.54.1.07.2.11.32.14.12.03.24.03.36.01s.23-.06.34-.14c.11-.07.2-.18.28-.31.72-1.19,1.48-2.37,2.29-3.54.81-1.17,1.64-2.31,2.5-3.4.1-.13.16-.25.18-.38.02-.12.02-.24-.01-.35-.03-.11-.09-.21-.16-.3Z"
     id="path27"
     style="fill:#694a26;fill-opacity:1" />
  <path
     class="cls-1"
     d="M385.58,68.56c-48.83-33.16-113.45-32.81-145.08-24.66l-.33.13c-.52.22-.81.2-.91.16-.64-.78-10.95-12.44-30.42-22.71,0,0-.02,0-.05-.02-.08-.98-.15-1.6-.15-1.6h0c-.57-5.08-1.61-10.48-3.22-16.17.7-.24,1.25-.84,1.3-1.64.09-1.05-.7-1.97-1.75-2.05-1.05-.08-1.97.7-2.05,1.75-.03.48.11.92.36,1.27l-5.99,13-.02.05c-15.81-6.48-35.97-11.22-60.36-10.12-52.9,2.41-81.05,22.01-91.21,52.35-.22.66-.54.77-.61.79-12.99,2.13-35.35,16.22-42.21,33.62-4.01,10.19-5.82,26.2,8.37,44.55l.06.07.06.07c23.62,25,51.42,30.2,70.59,30.14,18.37-.03,37.09-5.82,40.93-7.55,1.54,4.35,12.09,17.75,34.8,19.5,16.53,1.27,31.71-6.25,45.11-12.88,10.69-5.29,20.78-10.29,29.42-9.63,11.33.87,12.55,7.59,12.55,7.59l1.59-1.87c.06-.07,6.12-7.19,14.91-6.96,34.1.91,99.17.41,123.2-18.49,12.56-9.89,19.26-20.25,19.26-39.41,0-11.54-8.7-22.89-18.14-29.3ZM197.94,19.44l.05-.12,1.13-2.49s0,0,0,0v-.03s4.88-10.72,4.88-10.72c.64,2.1,1.94,7.05,2.46,14.12,0,.02,0,.04,0,.06,0,0,0,0,0,0,.03.43.06.87.08,1.32.03.46.05.92.06,1.39,0,.04,0,.08,0,.12,0,0,0,0,0,.01.69,18.96-4.75,50.46-38.81,83.11,0,0-.96,1.26.02,1.67.98.41,1.97-.44,1.97-.44,4.84-4.4,10.31-10.11,15.43-16.99,0,0,3.07-2.64.66,2.42-2.42,5.06-13.36,17.75-31.96,28.74-1.4.2-1.23-2.49-1.23-2.49l45.25-99.7ZM379.24,135.46c-22.93,18.05-82.12,19.36-117.93,18.39-9.88-.27-16.43,7.64-16.43,7.64,0,0-4.02-5.76-16.57-6.72-20.18-1.55-45.23,24.76-74.51,22.5-21.82-1.68-27.86-14.35-29.17-18.08,0,0-.71-1.77-2.85-.76-7.4,3.08-62.92,21.06-104.87-23.36-29.74-38.43,8.91-70.87,28.47-74.08,0,0,1.49-.14,2.14-2.06,4.03-12.05,17.06-44.59,93.32-48.05,22.47-1.02,40.81,2.58,55.25,7.8l-3.95,8.57h0s-43.72,94.79-43.72,94.79c-.02,0-1.44-.18-3.75-.49l-.93-2.22s1.24-.52,1.55-.66c.55-.25.83-2.17.97-2.41s.5-.35.5-.35l.85.26.41-1.33s-.38-.08-.79-.24c0,0-.05-.19-.14-.19-.04,0-.15.04-.15.04,0,0,0-.22-.15-.27-.15-.05-.25.11-.25.11,0,0-.05-.21-.17-.26-.12-.06-.29.18-.29.18,0,0-.08-.27-.19-.3-.05-.01-.12.01-.19.12-.01.02-.03.06-.04.09-.14-.04-.25-.08-.31-.1-.36-.11-.56.22-.56.22l-.56-.17c.23-.68.81-3.27-1.3-3.44-2.17-.16-2.13,2.49-2,3.15s.34.99-1.42,2.12c-1.76,1.12-2.59,4.26-2.59,4.26l-.24.34c-1.79-.23-3.16-.4-3.52-.42h0c-1.28-.1-2.65,1.09-.43,3.27,2.21,2.19,6.2,5.22,5.75,11.08-.02.3-.27.44-.27.44-.82.44-1.95.6-2.74.53-2.31-.18-4.01.51-6.13,1.94-1.13.77-2.62,1.8-3.39,1.91-1.89.27-4.42-.74-4.52-1.9-.25-2.85,5.24-1.12,5.72-2.23.88-2.05-4.17-1.01-5.91.09-1.18.73-2.26,1.38-2.3,1.95-.2,2.52,3.97,4.62,6.47,4.81,1.21.09,2.79-1.18,4.51-2.34,1.77-1.2,3.81-3.13,5.45-3,3.31.26,5.86-2.71,7.83-4.94.56-.62.57-.62,1.15-1.23.5-.51,1.12-.47,1.74-.39,1,.13,1.97.86,2.41,1.65,1.26,2.24,6.11,2.17,8.88,1.96.49-.03.35.59,1.08,1.72.79,1.23,2.25,2.84,4.65,3.38.39.08.44-.16.83-.08,1.15.26,4.23,1.14,4.4,1.83,0,0,.3.61-3.19,2.36-3.61,1.8-6.06,2.11-8.49,2.4-3.21.38-5.85,1.32-10.48,5.09-3.67,2.99-5.45,2.64-5.65,2.54-.46-.24-.67-1.77-.54-3.55,0-.12-.12-.34-.07-.61.13-.98.88-2.8-.49-3.8-1.69-1.25-5.34-1.1-11.14,1.63-12.24,5.78-14.3,5.28-14.61,4.99-.27-.26-.6-1.31-.22-2.23.71-1.74,2.7-2.26,3.8-3.13,1.06-.85,2.22-1.89,2.3-3.16.07-1.02-.7-2.24-1.99-3.57-.37-.38-1.35-.45-1.72-.08-.38.36-.11,1.12.27,1.5,1.1,1.14.77,1.75.76,1.98-.04.42-.53.64-1.28,1.24-1.16.91-2.81,2.37-3.71,4.57-.72,1.79-.2,3.15.7,4.01,1.23,1.16,4.26,2.23,16.85-3.7,6.82-3.22,8.63-2.94,8.99-2.67.45.32.57,1.61.47,2.27-.03.29-1.1.17-1.13.46-.11,1.3.03,4.67,1.84,5.62,1.55.81,3.74-1.04,7.04-3.72,4.19-3.41,7.24-2.95,10.3-3.31,1.93-.23,4.22-.38,6.93-1.43l-.04-.83c1.21-.22,3.7-.09,4.05.53.4.72.34,1.99.99,2.14,1.19.31,2.46-.99,3.69-1.75,1.08-.68,2.25-1.49,3.26-1.41.52.05,1.24-.17,1.28-.7.05-.53-.66-.55-1.18-.59-1.64-.12-3.1.27-4.38,1.07-.75.47-1.49.5-1.9.4h-.22c-.36-.67-1.64-1.18-2.33-1.4,2.38-1.36,4.02-2.28,3.87-3.52-.21-1.63-3.76-2.36-6.37-2.88l-.38-.27s4.11-2.01.98-3.71c-3.13-1.71-13.13-8.29-9.45-10.43,9.9-5.77,27.86-19.27,32.63-30.06,4.78-10.8.47-7.51,4.98-14.83,3.54-5.76,16.5-22.89,15.83-50.48-.04-1.11-.1-2.24-.17-3.27.02,0,.04.02.06.03,19.6,9.8,28.88,21.34,28.88,21.34,0,0,.82.81,2.95.23,19.74-5.39,89.69-10.73,139.55,24,23.84,16.6,19.52,49.32-1.2,65.64ZM142.46,115.45s.87-.51,1.38-.9l.7.24s-.02.12.06.31c.08.19.34.27.34.27,0,0,.05.41.25.86.15.35-.34,1.28-.86,1.38-.38.07-.84-.26-1.07-.57-.55-.76-.8-1.58-.8-1.58ZM143.17,121.35c-.66-.07-1.33-.16-2.01-.26l.6-1.95,1.42,2.21Z"
     id="path28"
     style="fill:#694a26;fill-opacity:1" />
</svg>
